<?xml version="1.0" standalone="no"?>
<!DOCTYPE svg PUBLIC "-//W3C//DTD SVG 20010904//EN"
 "http://www.w3.org/TR/2001/REC-SVG-20010904/DTD/svg10.dtd">
<svg version="1.0" xmlns="http://www.w3.org/2000/svg"
 width="260.000000pt" height="260.000000pt" viewBox="0 0 260.000000 260.000000"
 preserveAspectRatio="xMidYMid meet">
<metadata>
Created by potrace 1.11, written by Peter Selinger 2001-2013
</metadata>
<g transform="translate(0.000000,260.000000) scale(0.100000,-0.100000)"
fill="#000000" stroke="none">
<path d="M1193 2186 c-69 -40 -83 -42 -83 -12 0 14 -4 26 -10 26 -5 0 -10 -13
-10 -29 0 -36 -18 -51 -72 -58 l-43 -6 24 27 c14 14 20 26 14 26 -5 0 -20 -11
-33 -25 -31 -33 -68 -34 -65 -2 1 12 0 14 -2 5 -2 -10 -10 -18 -16 -19 -95 -5
-133 -19 -212 -81 -49 -39 -114 -113 -115 -133 0 -5 -12 -23 -26 -39 -20 -23
-28 -26 -34 -15 -5 7 -12 10 -16 6 -4 -4 -2 -13 4 -19 7 -7 12 -21 12 -33 -1
-20 -1 -20 -17 0 -15 19 -15 19 -9 -8 5 -19 3 -26 -4 -22 -5 3 -10 -2 -10 -14
0 -24 -49 -61 -80 -61 -18 0 -20 -3 -11 -14 10 -12 8 -19 -8 -35 -12 -12 -21
-25 -21 -30 0 -5 -6 -16 -12 -23 -33 -36 -90 -157 -129 -273 -18 -55 -39 -114
-46 -132 -7 -17 -13 -37 -13 -45 0 -8 -5 -19 -11 -25 -6 -6 -10 -35 -9 -65 1
-29 2 -97 2 -151 0 -58 4 -97 10 -97 6 0 8 -14 4 -36 -4 -19 -2 -69 5 -110 9
-60 9 -80 -1 -99 -11 -20 -10 -26 3 -39 9 -9 19 -38 22 -64 4 -26 13 -70 21
-99 18 -66 18 -101 -1 -119 -23 -24 -19 -80 7 -98 41 -29 45 -22 32 62 -6 42
-13 178 -13 302 -2 231 4 284 46 397 8 23 13 52 10 65 -3 13 -2 41 4 63 5 22
11 52 14 68 2 15 8 33 12 40 4 6 8 25 9 41 1 16 6 31 11 35 5 3 25 39 44 80
54 119 147 226 179 206 6 -3 10 -1 10 5 0 5 27 -3 60 -20 33 -17 62 -29 65
-28 2 2 11 -6 19 -17 16 -22 82 -30 103 -13 8 6 19 5 32 -2 12 -6 21 -7 21 -1
0 11 71 3 84 -10 6 -5 17 -2 28 8 16 15 18 14 27 -8 5 -13 10 -18 10 -11 1 16
28 15 34 -2 3 -7 1 -18 -5 -24 -7 -7 -3 -10 16 -8 18 2 26 -2 26 -12 0 -9 7
-13 20 -9 11 3 23 0 27 -5 3 -6 1 -8 -4 -5 -12 8 -49 -30 -40 -40 4 -3 7 -1 7
6 0 7 5 9 10 6 6 -4 7 -11 4 -17 -4 -6 -1 -9 6 -6 7 2 24 -6 37 -18 27 -25 30
-36 6 -27 -11 4 -14 3 -9 -6 5 -7 0 -18 -10 -27 -14 -11 -15 -14 -4 -13 33 3
51 -2 45 -11 -5 -8 -11 -8 -19 -1 -16 14 -26 4 -19 -17 4 -9 2 -13 -4 -9 -5 3
-10 -1 -10 -9 0 -10 4 -11 11 -4 5 5 20 10 33 10 13 0 23 5 23 10 0 6 4 10 9
10 5 0 7 -10 3 -22 -4 -17 -2 -20 12 -15 10 4 27 7 39 7 18 0 19 2 7 10 -20
13 -10 12 29 -1 25 -9 29 -14 20 -25 -12 -14 -6 -45 8 -43 23 4 43 -2 38 -11
-5 -8 -11 -7 -21 1 -25 20 -15 -1 11 -26 20 -18 24 -29 19 -50 -4 -17 -9 -23
-14 -15 -6 9 -9 9 -16 -1 -4 -7 -3 -14 4 -17 7 -2 9 -8 6 -14 -4 -6 -1 -14 6
-18 8 -5 9 -10 2 -14 -6 -3 -18 1 -26 10 -14 13 -16 13 -16 1 0 -8 7 -18 16
-21 8 -3 12 -11 8 -17 -4 -7 0 -9 14 -5 16 5 20 3 17 -11 -2 -10 -4 -20 -6
-23 -1 -3 -3 -41 -5 -85 -7 -197 -9 -220 -18 -227 -5 -3 -11 -14 -12 -24 -4
-28 -26 -64 -36 -58 -4 3 -8 0 -8 -5 0 -8 -7 -7 -19 1 -11 7 -17 16 -15 20 3
4 -1 8 -9 8 -19 0 -29 27 -21 54 6 21 6 21 -14 1 -15 -15 -17 -24 -10 -39 9
-16 7 -18 -7 -12 -13 4 -16 2 -11 -9 3 -8 2 -15 -3 -15 -20 0 -20 -46 -1 -72
12 -16 17 -34 13 -44 -5 -12 -3 -15 6 -9 10 6 12 -1 7 -31 -3 -22 -8 -101 -11
-176 l-4 -138 457 0 457 0 26 63 c15 34 32 88 39 120 6 32 23 91 37 130 46
134 28 247 -40 255 -31 4 -32 11 -11 81 8 29 13 59 10 66 -2 7 0 39 6 71 5 33
11 76 12 97 2 21 6 40 8 43 10 10 -2 147 -17 192 -9 25 -18 66 -21 91 -4 25
-15 66 -26 90 -17 35 -18 45 -8 51 10 6 11 12 3 22 -6 7 -13 33 -16 57 -3 24
-10 47 -14 50 -5 3 -12 14 -16 23 -4 12 -2 15 9 11 7 -3 14 -1 14 4 0 17 -32
77 -62 116 l-30 37 26 0 c15 0 52 -14 84 -32 57 -31 57 -32 33 -5 -13 15 -44
36 -68 48 -48 23 -63 39 -37 39 11 0 15 6 11 20 -6 23 3 26 21 8 8 -8 12 -8
12 -1 0 14 -26 24 -44 17 -10 -4 -14 2 -12 19 1 31 18 26 70 -22 23 -22 34
-28 28 -16 -15 30 -68 74 -97 81 -20 5 -24 11 -19 28 6 20 5 20 -11 4 -14 -13
-22 -14 -42 -5 -13 6 -22 16 -19 23 3 8 -17 26 -49 44 -30 17 -55 36 -55 41 0
5 -9 9 -21 9 -14 0 -19 5 -16 15 5 10 -4 16 -31 21 l-37 7 40 13 c22 6 34 12
28 13 -8 1 -13 15 -13 33 0 20 -4 28 -9 23 -12 -12 -133 -7 -126 5 3 5 1 11
-5 15 -5 3 -10 -3 -10 -13 0 -11 -7 -23 -16 -26 -25 -9 -30 1 -11 22 10 10 14
22 10 25 -10 11 -51 8 -58 -3 -8 -13 -52 -13 -60 -1 -3 5 5 12 17 14 19 3 17
5 -7 6 -50 3 -122 26 -143 45 -17 15 -26 16 -59 7 -31 -9 -40 -8 -49 4 -14 19
-11 19 -61 -9z m-408 -135 c-65 -41 -88 -44 -40 -4 33 27 62 41 85 42 8 1 -12
-17 -45 -38z m775 29 c-19 -13 -30 -13 -30 0 0 6 10 10 23 10 18 0 19 -2 7
-10z m190 -20 c0 -5 -6 -10 -13 -10 -7 0 -32 -9 -55 -20 -55 -27 -66 -25 -46
6 13 19 24 24 41 21 13 -2 26 0 29 4 7 12 44 11 44 -1z m-333 -1340 c1 -16 -1
-17 -12 -7 -7 6 -11 15 -8 20 8 13 19 7 20 -13z m118 -408 c-5 -30 -2 -44 15
-65 26 -32 14 -34 -40 -6 -44 23 -48 30 -25 49 8 7 15 17 15 23 0 8 28 36 38
37 2 0 1 -17 -3 -38z m65 -11 c0 -18 -18 -21 -30 -6 -10 13 -9 15 9 15 11 0
21 -4 21 -9z"/>
<path d="M1005 1360 c3 -5 11 -10 16 -10 6 0 7 5 4 10 -3 6 -11 10 -16 10 -6
0 -7 -4 -4 -10z"/>
<path d="M2443 1345 c0 -8 4 -15 8 -15 4 0 9 7 13 15 3 9 0 15 -8 15 -7 0 -13
-7 -13 -15z"/>
<path d="M1280 1129 c0 -5 5 -7 10 -4 6 3 10 8 10 11 0 2 -4 4 -10 4 -5 0 -10
-5 -10 -11z"/>
<path d="M465 620 c-12 -4 -27 -15 -34 -24 -15 -18 -36 -22 -26 -5 5 7 -3 9
-21 7 -18 -2 -28 -8 -26 -17 1 -7 -3 -20 -10 -29 -8 -9 -8 -13 -2 -9 7 4 17 0
23 -7 15 -18 80 -10 97 10 14 17 28 18 18 2 -6 -10 -4 -10 7 0 7 6 22 11 34
11 19 -1 19 -2 0 -6 -33 -9 67 -40 163 -52 48 -6 114 -18 147 -26 78 -19 76
-19 60 11 -7 15 -11 32 -9 39 3 7 -2 15 -10 18 -9 4 -16 15 -16 26 0 14 -5 18
-20 14 -11 -3 -17 -10 -14 -15 3 -5 -3 -4 -15 4 -12 7 -21 15 -21 18 0 3 -30
6 -67 7 -37 1 -69 5 -70 10 -2 5 -21 7 -42 5 -21 -2 -42 1 -45 7 -8 13 -71 14
-101 1z m-38 -76 c-3 -3 -12 -4 -19 -1 -8 3 -5 6 6 6 11 1 17 -2 13 -5z"/>
<path d="M96 463 c-10 -61 -7 -94 13 -157 18 -57 18 -58 24 -26 4 17 2 52 -4
76 -7 25 -9 67 -6 95 5 37 3 49 -7 49 -8 0 -16 -16 -20 -37z"/>
<path d="M643 460 c-48 -7 -69 -20 -32 -20 13 0 31 -4 38 -9 12 -8 8 -11 -15
-16 -16 -4 -56 -13 -88 -21 -32 -8 -61 -12 -64 -9 -3 3 3 15 14 27 20 23 3 17
-28 -10 -20 -17 -22 -30 -9 -51 8 -12 16 -10 50 7 42 22 121 40 121 28 0 -4
-7 -18 -16 -31 -16 -25 -16 -25 15 -25 21 0 31 -5 31 -15 0 -18 -1 -18 -34 -5
-31 11 -33 1 -9 -41 18 -29 24 -33 78 -43 26 -5 34 0 58 32 21 27 27 44 23 65
-3 15 -2 27 3 27 8 0 27 -40 33 -70 2 -8 -4 -14 -12 -15 -11 0 -14 -9 -12 -30
3 -24 1 -27 -9 -18 -19 19 -44 -4 -27 -25 9 -11 9 -14 1 -9 -6 4 -14 3 -17 -2
-3 -4 11 -11 30 -14 35 -6 64 8 64 31 0 14 35 42 53 42 21 0 32 19 18 33 -8 8
-15 6 -25 -9 -8 -11 -18 -15 -23 -10 -4 5 -2 11 5 13 15 6 16 35 1 50 -7 7 -7
13 0 17 5 4 24 -7 41 -24 17 -16 33 -30 35 -30 26 0 -84 134 -127 156 -40 21
-113 31 -165 24z"/>
</g>
</svg>
