<svg xmlns="http://www.w3.org/2000/svg" width="1005" height="60">
  <desc/>
  <g transform="translate(0)">
    <text dy="1.5em" data-css-ebrkbg=""/>
    <g>
      <text text-anchor="start" x="0" y="0" dy="0.9em" data-css-knm5qs=""/>
      <g transform="translate(0)">
        <rect fill="#4f9bc7" x="0" width="7" height="40"/>
      </g>
      <g transform="translate(0)">
        <rect fill="#eaf1f5" x="6" width="7" height="40"/>
      </g>
      <g transform="translate(0)">
        <rect fill="#f7f6f6" x="12" width="7" height="40"/>
      </g>
      <g transform="translate(0)">
        <rect fill="#cfe4ef" x="19" width="7" height="40"/>
      </g>
      <g transform="translate(0)">
        <rect fill="#faeae1" x="25" width="7" height="40"/>
      </g>
      <g transform="translate(0)">
        <rect fill="#cce2ef" x="32" width="7" height="40"/>
      </g>
      <g transform="translate(0)">
        <rect fill="#6eaed2" x="38" width="7" height="40"/>
      </g>
      <g transform="translate(0)">
        <rect fill="#4393c3" x="45" width="7" height="40"/>
      </g>
      <g transform="translate(0)">
        <rect fill="#f8f2ef" x="51" width="7" height="40"/>
      </g>
      <g transform="translate(0)">
        <rect fill="#eaf1f5" x="58" width="7" height="40"/>
      </g>
      <g transform="translate(0)">
        <rect fill="#acd2e5" x="64" width="7" height="40"/>
      </g>
      <g transform="translate(0)">
        <rect fill="#b3d6e8" x="71" width="7" height="40"/>
      </g>
      <g transform="translate(0)">
        <rect fill="#ddebf2" x="77" width="7" height="40"/>
      </g>
      <g transform="translate(0)">
        <rect fill="#cfe4ef" x="84" width="7" height="40"/>
      </g>
      <g transform="translate(0)">
        <rect fill="#8ac0db" x="90" width="7" height="40"/>
      </g>
      <g transform="translate(0)">
        <rect fill="#337eb8" x="97" width="7" height="40"/>
      </g>
      <g transform="translate(0)">
        <rect fill="#f2f5f6" x="103" width="7" height="40"/>
      </g>
      <g transform="translate(0)">
        <rect fill="#c7e0ed" x="110" width="7" height="40"/>
      </g>
      <g transform="translate(0)">
        <rect fill="#d1e5f0" x="116" width="7" height="40"/>
      </g>
      <g transform="translate(0)">
        <rect fill="#7eb8d7" x="123" width="7" height="40"/>
      </g>
      <g transform="translate(0)">
        <rect fill="#dae9f2" x="129" width="7" height="40"/>
      </g>
      <g transform="translate(0)">
        <rect fill="#d2e6f0" x="136" width="7" height="40"/>
      </g>
      <g transform="translate(0)">
        <rect fill="#c5dfec" x="142" width="7" height="40"/>
      </g>
      <g transform="translate(0)">
        <rect fill="#3b88be" x="148" width="7" height="40"/>
      </g>
      <g transform="translate(0)">
        <rect fill="#5ca3cb" x="155" width="7" height="40"/>
      </g>
      <g transform="translate(0)">
        <rect fill="#3f8ec0" x="161" width="7" height="40"/>
      </g>
      <g transform="translate(0)">
        <rect fill="#4f9bc7" x="168" width="7" height="40"/>
      </g>
      <g transform="translate(0)">
        <rect fill="#5fa5cd" x="174" width="7" height="40"/>
      </g>
      <g transform="translate(0)">
        <rect fill="#c0dceb" x="181" width="7" height="40"/>
      </g>
      <g transform="translate(0)">
        <rect fill="#e0ecf3" x="187" width="7" height="40"/>
      </g>
      <g transform="translate(0)">
        <rect fill="#cae1ee" x="194" width="7" height="40"/>
      </g>
      <g transform="translate(0)">
        <rect fill="#a0cce2" x="200" width="7" height="40"/>
      </g>
      <g transform="translate(0)">
        <rect fill="#68abd0" x="207" width="7" height="40"/>
      </g>
      <g transform="translate(0)">
        <rect fill="#eff3f5" x="213" width="7" height="40"/>
      </g>
      <g transform="translate(0)">
        <rect fill="#f9eee7" x="220" width="7" height="40"/>
      </g>
      <g transform="translate(0)">
        <rect fill="#f7f5f4" x="226" width="7" height="40"/>
      </g>
      <g transform="translate(0)">
        <rect fill="#f2f5f6" x="233" width="7" height="40"/>
      </g>
      <g transform="translate(0)">
        <rect fill="#75b2d4" x="239" width="7" height="40"/>
      </g>
      <g transform="translate(0)">
        <rect fill="#b3d6e8" x="246" width="7" height="40"/>
      </g>
      <g transform="translate(0)">
        <rect fill="#bbdaea" x="252" width="7" height="40"/>
      </g>
      <g transform="translate(0)">
        <rect fill="#f7f6f6" x="259" width="7" height="40"/>
      </g>
      <g transform="translate(0)">
        <rect fill="#90c4dd" x="265" width="7" height="40"/>
      </g>
      <g transform="translate(0)">
        <rect fill="#bbdaea" x="272" width="7" height="40"/>
      </g>
      <g transform="translate(0)">
        <rect fill="#bbdaea" x="278" width="7" height="40"/>
      </g>
      <g transform="translate(0)">
        <rect fill="#a9d1e5" x="285" width="7" height="40"/>
      </g>
      <g transform="translate(0)">
        <rect fill="#569fc9" x="291" width="7" height="40"/>
      </g>
      <g transform="translate(0)">
        <rect fill="#a0cce2" x="297" width="7" height="40"/>
      </g>
      <g transform="translate(0)">
        <rect fill="#fae8de" x="304" width="7" height="40"/>
      </g>
      <g transform="translate(0)">
        <rect fill="#a9d1e5" x="310" width="7" height="40"/>
      </g>
      <g transform="translate(0)">
        <rect fill="#e3edf3" x="317" width="7" height="40"/>
      </g>
      <g transform="translate(0)">
        <rect fill="#c0dceb" x="323" width="7" height="40"/>
      </g>
      <g transform="translate(0)">
        <rect fill="#a9d1e5" x="330" width="7" height="40"/>
      </g>
      <g transform="translate(0)">
        <rect fill="#d5e7f1" x="336" width="7" height="40"/>
      </g>
      <g transform="translate(0)">
        <rect fill="#65a9cf" x="343" width="7" height="40"/>
      </g>
      <g transform="translate(0)">
        <rect fill="#e4eef4" x="349" width="7" height="40"/>
      </g>
      <g transform="translate(0)">
        <rect fill="#6eaed2" x="356" width="7" height="40"/>
      </g>
      <g transform="translate(0)">
        <rect fill="#fddcc9" x="362" width="7" height="40"/>
      </g>
      <g transform="translate(0)">
        <rect fill="#facab1" x="369" width="7" height="40"/>
      </g>
      <g transform="translate(0)">
        <rect fill="#a0cce2" x="375" width="7" height="40"/>
      </g>
      <g transform="translate(0)">
        <rect fill="#eaf1f5" x="382" width="7" height="40"/>
      </g>
      <g transform="translate(0)">
        <rect fill="#d1e5f0" x="388" width="7" height="40"/>
      </g>
      <g transform="translate(0)">
        <rect fill="#cce2ef" x="395" width="7" height="40"/>
      </g>
      <g transform="translate(0)">
        <rect fill="#f9eee7" x="401" width="7" height="40"/>
      </g>
      <g transform="translate(0)">
        <rect fill="#f2f5f6" x="408" width="7" height="40"/>
      </g>
      <g transform="translate(0)">
        <rect fill="#fae7dc" x="414" width="7" height="40"/>
      </g>
      <g transform="translate(0)">
        <rect fill="#d4e6f1" x="421" width="7" height="40"/>
      </g>
      <g transform="translate(0)">
        <rect fill="#fbe4d6" x="427" width="7" height="40"/>
      </g>
      <g transform="translate(0)">
        <rect fill="#a2cde3" x="433" width="7" height="40"/>
      </g>
      <g transform="translate(0)">
        <rect fill="#e0ecf3" x="440" width="7" height="40"/>
      </g>
      <g transform="translate(0)">
        <rect fill="#b1d5e7" x="446" width="7" height="40"/>
      </g>
      <g transform="translate(0)">
        <rect fill="#fcd5bf" x="453" width="7" height="40"/>
      </g>
      <g transform="translate(0)">
        <rect fill="#cae1ee" x="459" width="7" height="40"/>
      </g>
      <g transform="translate(0)">
        <rect fill="#e9f0f4" x="466" width="7" height="40"/>
      </g>
      <g transform="translate(0)">
        <rect fill="#f6f7f7" x="472" width="7" height="40"/>
      </g>
      <g transform="translate(0)">
        <rect fill="#eaf1f5" x="479" width="7" height="40"/>
      </g>
      <g transform="translate(0)">
        <rect fill="#cce2ef" x="485" width="7" height="40"/>
      </g>
      <g transform="translate(0)">
        <rect fill="#7eb8d7" x="492" width="7" height="40"/>
      </g>
      <g transform="translate(0)">
        <rect fill="#8dc2dc" x="498" width="7" height="40"/>
      </g>
      <g transform="translate(0)">
        <rect fill="#e3edf3" x="505" width="7" height="40"/>
      </g>
      <g transform="translate(0)">
        <rect fill="#f9c6ac" x="511" width="7" height="40"/>
      </g>
      <g transform="translate(0)">
        <rect fill="#c2ddec" x="518" width="7" height="40"/>
      </g>
      <g transform="translate(0)">
        <rect fill="#fbe4d6" x="524" width="7" height="40"/>
      </g>
      <g transform="translate(0)">
        <rect fill="#f9eee7" x="531" width="7" height="40"/>
      </g>
      <g transform="translate(0)">
        <rect fill="#f19e7d" x="537" width="7" height="40"/>
      </g>
      <g transform="translate(0)">
        <rect fill="#f9c4a9" x="544" width="7" height="40"/>
      </g>
      <g transform="translate(0)">
        <rect fill="#f7b596" x="550" width="7" height="40"/>
      </g>
      <g transform="translate(0)">
        <rect fill="#fdddcb" x="557" width="7" height="40"/>
      </g>
      <g transform="translate(0)">
        <rect fill="#f9efe9" x="563" width="7" height="40"/>
      </g>
      <g transform="translate(0)">
        <rect fill="#ecf2f5" x="570" width="7" height="40"/>
      </g>
      <g transform="translate(0)">
        <rect fill="#fbe5d8" x="576" width="7" height="40"/>
      </g>
      <g transform="translate(0)">
        <rect fill="#cce2ef" x="582" width="7" height="40"/>
      </g>
      <g transform="translate(0)">
        <rect fill="#dae9f2" x="589" width="7" height="40"/>
      </g>
      <g transform="translate(0)">
        <rect fill="#4695c4" x="595" width="7" height="40"/>
      </g>
      <g transform="translate(0)">
        <rect fill="#faeae1" x="602" width="7" height="40"/>
      </g>
      <g transform="translate(0)">
        <rect fill="#f8f2ef" x="608" width="7" height="40"/>
      </g>
      <g transform="translate(0)">
        <rect fill="#f9c4a9" x="615" width="7" height="40"/>
      </g>
      <g transform="translate(0)">
        <rect fill="#eaf1f5" x="621" width="7" height="40"/>
      </g>
      <g transform="translate(0)">
        <rect fill="#f5aa89" x="628" width="7" height="40"/>
      </g>
      <g transform="translate(0)">
        <rect fill="#a2cde3" x="634" width="7" height="40"/>
      </g>
      <g transform="translate(0)">
        <rect fill="#a2cde3" x="641" width="7" height="40"/>
      </g>
      <g transform="translate(0)">
        <rect fill="#fbe3d4" x="647" width="7" height="40"/>
      </g>
      <g transform="translate(0)">
        <rect fill="#a0cce2" x="654" width="7" height="40"/>
      </g>
      <g transform="translate(0)">
        <rect fill="#f8f3f0" x="660" width="7" height="40"/>
      </g>
      <g transform="translate(0)">
        <rect fill="#f9f0eb" x="667" width="7" height="40"/>
      </g>
      <g transform="translate(0)">
        <rect fill="#e4eef4" x="673" width="7" height="40"/>
      </g>
      <g transform="translate(0)">
        <rect fill="#d1e5f0" x="680" width="7" height="40"/>
      </g>
      <g transform="translate(0)">
        <rect fill="#d1e5f0" x="686" width="7" height="40"/>
      </g>
      <g transform="translate(0)">
        <rect fill="#f8f4f2" x="693" width="7" height="40"/>
      </g>
      <g transform="translate(0)">
        <rect fill="#ddebf2" x="699" width="7" height="40"/>
      </g>
      <g transform="translate(0)">
        <rect fill="#deebf2" x="706" width="7" height="40"/>
      </g>
      <g transform="translate(0)">
        <rect fill="#f0f4f6" x="712" width="7" height="40"/>
      </g>
      <g transform="translate(0)">
        <rect fill="#f9eee7" x="718" width="7" height="40"/>
      </g>
      <g transform="translate(0)">
        <rect fill="#f8f4f2" x="725" width="7" height="40"/>
      </g>
      <g transform="translate(0)">
        <rect fill="#f9eee7" x="731" width="7" height="40"/>
      </g>
      <g transform="translate(0)">
        <rect fill="#d7e8f1" x="738" width="7" height="40"/>
      </g>
      <g transform="translate(0)">
        <rect fill="#ecf2f5" x="744" width="7" height="40"/>
      </g>
      <g transform="translate(0)">
        <rect fill="#b3d6e8" x="751" width="7" height="40"/>
      </g>
      <g transform="translate(0)">
        <rect fill="#f0f4f6" x="757" width="7" height="40"/>
      </g>
      <g transform="translate(0)">
        <rect fill="#facab1" x="764" width="7" height="40"/>
      </g>
      <g transform="translate(0)">
        <rect fill="#f8bda1" x="770" width="7" height="40"/>
      </g>
      <g transform="translate(0)">
        <rect fill="#d4e6f1" x="777" width="7" height="40"/>
      </g>
      <g transform="translate(0)">
        <rect fill="#e7f0f4" x="783" width="7" height="40"/>
      </g>
      <g transform="translate(0)">
        <rect fill="#f7f5f4" x="790" width="7" height="40"/>
      </g>
      <g transform="translate(0)">
        <rect fill="#f8f1ed" x="796" width="7" height="40"/>
      </g>
      <g transform="translate(0)">
        <rect fill="#f8bda1" x="803" width="7" height="40"/>
      </g>
      <g transform="translate(0)">
        <rect fill="#e37e64" x="809" width="7" height="40"/>
      </g>
      <g transform="translate(0)">
        <rect fill="#ec9374" x="816" width="7" height="40"/>
      </g>
      <g transform="translate(0)">
        <rect fill="#fce0d0" x="822" width="7" height="40"/>
      </g>
      <g transform="translate(0)">
        <rect fill="#eb9172" x="829" width="7" height="40"/>
      </g>
      <g transform="translate(0)">
        <rect fill="#fbd0b9" x="835" width="7" height="40"/>
      </g>
      <g transform="translate(0)">
        <rect fill="#bf3338" x="842" width="7" height="40"/>
      </g>
      <g transform="translate(0)">
        <rect fill="#fbccb4" x="848" width="7" height="40"/>
      </g>
      <g transform="translate(0)">
        <rect fill="#f8f4f2" x="855" width="7" height="40"/>
      </g>
      <g transform="translate(0)">
        <rect fill="#e37e64" x="861" width="7" height="40"/>
      </g>
      <g transform="translate(0)">
        <rect fill="#f6b191" x="867" width="7" height="40"/>
      </g>
      <g transform="translate(0)">
        <rect fill="#f8bb9e" x="874" width="7" height="40"/>
      </g>
      <g transform="translate(0)">
        <rect fill="#db6b55" x="880" width="7" height="40"/>
      </g>
      <g transform="translate(0)">
        <rect fill="#f6b191" x="887" width="7" height="40"/>
      </g>
      <g transform="translate(0)">
        <rect fill="#d55d4c" x="893" width="7" height="40"/>
      </g>
      <g transform="translate(0)">
        <rect fill="#c94741" x="900" width="7" height="40"/>
      </g>
      <g transform="translate(0)">
        <rect fill="#f7b799" x="906" width="7" height="40"/>
      </g>
      <g transform="translate(0)">
        <rect fill="#fcdfcf" x="913" width="7" height="40"/>
      </g>
      <g transform="translate(0)">
        <rect fill="#dd7059" x="919" width="7" height="40"/>
      </g>
      <g transform="translate(0)">
        <rect fill="#d6604d" x="926" width="7" height="40"/>
      </g>
      <g transform="translate(0)">
        <rect fill="#f19e7d" x="932" width="7" height="40"/>
      </g>
      <g transform="translate(0)">
        <rect fill="#e58368" x="939" width="7" height="40"/>
      </g>
      <g transform="translate(0)">
        <rect fill="#f8f1ed" x="945" width="7" height="40"/>
      </g>
      <g transform="translate(0)">
        <rect fill="#ab162a" x="952" width="7" height="40"/>
      </g>
      <g transform="translate(0)">
        <rect fill="#e58368" x="958" width="7" height="40"/>
      </g>
      <g transform="translate(0)">
        <rect fill="#f9c6ac" x="965" width="7" height="40"/>
      </g>
      <g transform="translate(0)">
        <rect fill="#b61f2e" x="971" width="7" height="40"/>
      </g>
      <g transform="translate(0)">
        <rect fill="#a21328" x="978" width="7" height="40"/>
      </g>
      <g transform="translate(0)">
        <rect fill="#d6604d" x="984" width="7" height="40"/>
      </g>
      <g transform="translate(0)">
        <rect fill="#ce4f45" x="991" width="7" height="40"/>
      </g>
      <g transform="translate(0)">
        <rect fill="#810823" x="997" width="8" height="40"/>
      </g>
    </g>
    <g transform="translate(0 48)"/>
  </g>
</svg>