<svg version="1" xmlns="http://www.w3.org/2000/svg" width="533.333" height="533.333" viewBox="0 0 400.000000 400.000000"><path d="M0 1.9c0 .9.5 2.2 1.2 2.9.8.8.8 1.2.1 1.2C.7 6 .2 8.8.1 13c-.1 5.8.1 6.9 1.4 6.4 1-.4 1.5 0 1.5 1.1s-.5 1.5-1.5 1.1C.2 21.1 0 24.6 0 49.5 0 71 .3 78 1.2 78c.9 0 .9.3 0 1.2-.9.9-1.2 14.9-1.2 56.6 0 51.7.1 55.6 1.7 56.8 1.7 1.3 1.7 1.3.1 1.4-1.4 0-1.8.8-1.8 3.5s.4 3.5 1.8 3.5c2.1 0 54.4-7 78.2-10.5 9.6-1.4 21.5-3.1 26.4-3.7l8.8-1 2.4 2.6c1.4 1.4 3 2.6 3.6 2.6.7 0 .3-.7-.8-1.5-1.3-1.1-1.4-1.3-.3-.9 1.1.3 1.8-.2 2.1-1.4.5-1.6 2.1-2.2 9.4-3.2 4.9-.7 18.9-2.7 31.2-4.4l22.2-3.2.2 2.3c0 1.3.1 2.9.2 3.5.1.7.9 1.9 1.8 2.6.9.7 1.5 1.9 1.2 2.7-.4.9.4 1.9 2 2.6 1.4.7 2.6 1.6 2.6 2.1 0 .4-1.5 2.5-3.3 4.5-5.5 6.2-16.5 21.8-20.3 29.1-2 3.7-4 6.6-4.5 6.4-.5-.1-.9.5-.9 1.3 0 1-1 1.5-3.1 1.5-2.4 0-3-.4-2.5-1.5.3-.9 0-1.5-.9-1.5s-1.5.9-1.5 2.1c0 1.2-.8 2.3-2 2.6-1.3.3-2 1.4-2 2.8 0 1.2-.7 2.9-1.6 3.6-1.3 1.1-1.7 1-2.5-.4-.6-.9-2.2-1.7-3.7-1.8-2.4 0-2.5-.1-.7-.9s1.7-.9-.8-.9c-2.4-.1-2.7.2-2.2 2 .5 1.4.2 2.5-.6 3-1.8 1.1-3.2 1.1-2.5.1.2-.4.1-1.4-.5-2.2-.6-1.1-.9-.9-.9 1.1 0 1.5-.7 2.9-1.5 3.3-1.8.7-2-.5-.2-2.3 1-1.1.5-1.2-3-.7-2.9.4-4.3.2-4.6-.7-.3-.7-.6-.5-.6.5-.1 1-.5 1.8-1 1.8-.9 0-2.7-11.1-2.3-14.4.1-1.1-.3-2.3-1-2.7-1-.7-1-1.2.3-2.4 1.7-1.8 1.4-6.5-.5-6.5-.6 0-.4-.5.4-1 1.2-.8 1.3-1.2.1-1.9-1-.6-1.1-1.3-.2-2.9 1.4-2.7 1.4-3.2-.3-3.2-.8 0-1.6-.8-1.9-1.8-.2-.9-.4 3-.5 8.8 0 5.8-.6 13-1.2 16-.7 3-1.3 6.6-1.4 8-.1 1.4-.6 3.2-1.1 4-.5.8-.4 1.5.3 1.8 1.3.4.6 2.7-2 6.4-1.2 1.7-1.7 3.6-1.3 4.8.3 1.1.2 2-.3 2s-1.2.9-1.5 2.1c-.4 1.5-.2 1.9.9 1.5 1.9-.7 1.7.4-.5 3.2-1.2 1.3-2.6 2-3.5 1.6-2.5-1-4 .6-1.9 2.1 2.1 1.6 1.6 2.4-1.8 2.7-1.5.2-2.3-.2-2.1-1 .1-.6-.3-1.2-.9-1.2-.7 0-.9 1.1-.6 2.8.5 2.4.1 3.1-2.3 4.6-2.6 1.4-2.9 1.5-2.4.1.7-1.7-.4-1.9-2.6-.5-1.3.9-1.3 1.1 0 2 1.3.8 1.3 1-.2 1-1.6 0-7.8 2.9-8.8 4.1-1.9 2.2-17 10.9-19 10.9-1.4 0-3.6.9-5 2s-3.2 2-4 2c-.8 0-2.7 1.1-4.2 2.5s-3.3 2.5-4.1 2.5c-.8 0-2.2.9-3.2 2-1 1.2-2.4 1.9-3.1 1.6-.7-.3-1.5.1-1.7.9-.3.7-1.9 1.6-3.6 2-1.7.4-3.1 1.1-3.1 1.7 0 .6-.3.8-.7.5-.3-.4-1.1.3-1.7 1.5-.6 1.2-2.5 2.5-4.1 2.8-1.7.4-5.3 1.8-8.1 3.3-2.8 1.4-6.4 2.7-8 2.9-3.2.5-8.6 2.8-9.5 4.2-.4.5-.7 5.5-.8 11.3l-.2 10.4 2.7-.7c1.9-.5 2.5-.4 2 .5-.4.6-1.6 1.1-2.7 1.1-1.7 0-1.9.7-1.9 8 0 6.4.3 8 1.5 8 .8 0 1.5.4 1.5 1 0 .5.5 1 1.1 1 .5 0 .8-.4.4-1-.6-1 3.8-.7 6.7.5 1.3.5 1.8.2 1.8-.9 0-.8.9-2 2-2.6 2.5-1.3 2.7.4.2 2-1.4.9-1.3 1 1 .6 1.4-.3 3.3-.3 4.1 0 2.1.8-4.4 7.4-7.3 7.4-2.7 0-1.7-1.8 1.8-3.1 1.9-.7 2.2-1.3 1.4-2.1-.9-.9-1.7-.8-3.5.1-1.3.7-4.2 1.4-6.6 1.6-5 .3-7.4 2.1-5.1 3.5 1 .7 1.1 1 .3 1-1.6 0-1.7 4.2-.1 5.8.8.8.8 1.5 0 2.5-.8.9-.8 1.7-.1 2.4.8.8.8 1.3 0 1.7-.6.4-1.1 1.6-1.1 2.7 0 1.5.7 1.9 3.9 1.9 2.2 0 4.4.6 5.1 1.5 1.1 1.3 1.5 1.1 3.3-1.1 2-2.6 2.1-2.6 3.5-.8s1.4 1.8.8.1c-.3-1-.6-2.4-.6-3 0-.8-.3-.8-1.1 0-.6.6-1.8.9-2.5.6-.8-.3-1.4 0-1.4.6 0 1.9-2.7 1.2-3.3-.9-.3-1.2-1.4-2-2.6-2-1.2 0-2.1-.6-2.1-1.3 0-2.4 1.1-2.6 3.3-.4 2 2 2.2 2 2.5.4.2-.9 1.2-1.7 2.3-1.7 1 0 1.9-.4 1.9-.9s.9-.7 2-.4c1.1.3 2 0 2-.6s-.7-1.1-1.5-1.1c-1.3 0-1.4-.4-.5-2 .9-1.8 1.8-2 5.3-1.5 2.6.4 3.7.2 2.9-.3-1.1-.7-.6-1.2 1.6-2 1.7-.6 3.3-.8 3.6-.5.3.4.6-.1.6-1s-1.1-1.9-2.5-2.3c-1.8-.4-2.5-1.3-2.5-3 0-1.3-.5-2.4-1.1-2.4-.5 0-.7-.5-.4-1 .3-.6 1.3-1 2.1-1 1.1 0 1.3.7.8 2.7-.7 2.6-.7 2.7 1 1 2.5-2.5 4.6-2.1 4.6.8 0 1.4.5 2.5 1.1 2.5.6 0 .8-.9.4-2s-.2-2 .4-2c1.9 0 1.2-5.5-.8-7.2-1.7-1.4-2.1-1.5-3.2-.2-1.4 1.7-5.6 1.9-6.2.1-.3-.9-.8-.9-2.1.2-1.4 1.2-1.9 1.2-2.6.2-.5-1-.9-1-1.3-.2s-.5.8-.3-.1c.3-1.4 2.2-2.5 5.9-3.3 1.5-.3 2.7-1.2 2.7-2.1 0-.8.5-1.2 1.1-.9.6.4.8 1.2.6 1.9-.5 1.3 6.2 1.9 7.8.7.5-.5 2-1.2 3.3-1.5 1.8-.6 2.2-.3 2.3 1.6.1 2.2.1 2.1 1.1-.5.9-2.6 4-3.7 5.2-1.9.3.5 2.6.7 5.2.7 3.6-.2 4.8.2 5.1 1.5.4 1.3 1.4 1.6 5.5 1.4 3.9-.3 5.5.1 6.5 1.4 1.3 1.5 1.4 1.4 1-1.1-.3-2.1-.1-2.7.9-2.3.7.3 1.6.1 1.9-.4.4-.6.1-1-.4-1-2.2 0-1-3 1.8-4.4 2.5-1.4 3.1-1.4 4.1-.1 1 1.3 1.4 1.3 2.7 0 .8-.9 1.8-1.3 2.3-1 .4.3 1-.4 1.3-1.6.4-1.4-.1-2.2-1.5-2.8-1.3-.5-1.7-1-1.1-1.4 1.5-.9 7.3.3 7.3 1.5 0 .5-.8.7-1.7.4-1.4-.4-1.8 0-1.9 1.8-.1 1.8.6 2.8 2.5 3.5 4.8 2 8.1 2.2 9.7.6 1.4-1.3 1.1-1.5-2.8-1.6-4.8 0-10.2-1.7-6-1.8 1.2-.1 2.2-.5 2.2-1s.9-.7 1.9-.4c1.1.3 2.8 0 3.8-.6s1.3-1.1.6-1.2c-.7-.1-1.7-.3-2.3-.4-.5-.1-1.9-.3-3-.4-2.6-.1-2.5-2.4.3-5.5 1.9-2.2 2.6-2.4 5.7-1.7 1.9.5 2.9.9 2.2 1-.7.1-1.1.5-.7 1.1.3.5 1.4.1 2.5-1s2.6-2 3.4-2c1.5 0 2.6-2.1 2.6-5.1 0-2.2.9-2.4 4.5-.7 2 .9 2.8.9 3.8-.2 1-1 .8-1.2-1-.7-3 .7-3.7-1.8-1-3.8 2.1-1.6 2.1-1.6-1.5-1.1-2.8.3-3.8.1-3.8-.9 0-.9.6-1.2 1.5-.9.8.4 2.3 0 3.2-.7 1.1-.9 1.4-1 1-.2-.9 1.4 3.4 2.9 5.8 2 2-.8 3.1 1.3 1.4 2.5-1 .7-.9.8.6.3 3.2-1.1 6.5-1.3 6.5-.4 0 .4-1.2.9-2.8 1.1-4.3.5-2.2 2.3 2.8 2.4 5 .1 7-.9 7-3.8 0-1 .5-1.6 1-1.3.6.3 1 .2 1-.3s1.4-1.2 3-1.4c1.7-.3 3-.1 3 .4 0 .4.5.8 1.1.8.6 0 .8-.8.4-1.9-.3-1.1-.2-2.2.4-2.5 1.2-.8 7.7 2 8.4 3.6.6 1.7-3.4 1.9-4.5.4-.5-.7-.8-.4-.8.6 0 1.9-3.4 2.5-4.5.8-.4-.6-1.2-.4-2.2.5-2 2.1-1 3 3.6 3 3.8 0 3.8 0 2.9 2.8-.9 2.6-1.2 2.7-3.2 1.4-1.4-.9-3-1.1-5.1-.6-1.6.5-3.2.4-3.5 0-.3-.5-4.9-.8-10.2-.8-5.4.1-8.9.5-7.8.9 2.6 1 2.6 2.1 0 1.3-1.5-.5-1.8-.2-1.5 1.4.3 1.5 0 1.8-1.3 1.4-.9-.4-2-1.1-2.4-1.7-.4-.6-1.3-.5-2.3.4-1.6 1.3-1.5 1.6 1.1 2.7 1.6.7 3.9 1.2 5.2 1.3 1.8 0 2.3.5 2 2.2-.2 1.8.2 2.3 2 2.4 1.2.1 2.6.5 3 .9.4.4-1 .5-3 .2-2.5-.4-4-.1-4.8.8-1.2 1.4-4.4.9-3.5-.5.3-.5.1-1.1-.5-1.5-.6-.4-.8-1-.6-1.4.3-.4 0-1.3-.5-2.1-.8-1.2-1.2-1.2-1.6-.3-.2.7-.9 1.3-1.4 1.3-.6 0-.7-.5-.3-1.2.4-.7.3-.8-.4-.4s-1.2.2-1.2-.4c0-.6-.5-.8-1.2-.4-.8.5-.6 1.1.5 1.9 1 .7 1.7 1.6 1.7 2 0 .4.7 1.3 1.5 1.9 1.9 1.4 2.8 5.6 1.2 5.6-.7.1.3.9 2.2 1.9 3.2 1.7 3.3 1.9 1.5 2.9-1.6 1-1.7 1.3-.4 2.2.8.5 2.3 1 3.3 1 1.5 0 1.5-.3.5-2-1.1-1.7-1-2.2.2-3 1.8-1.2 5.2-.3 6.3 1.7.7 1.1 2.4 1.4 6.5 1.1 4.8-.2 5.7 0 5.7 1.4 0 .9.4 2 .8 2.4.4.4.7.2.7-.5 0-.9 1.4-1.1 5.4-.6 5.2.7 5.5.6 5.8-1.6.3-2.2.4-2.1 1.6 1 1 2.7.9 3.1-.2 2.2-1.7-1.4-2.8-.3-1.3 1.4 1.2 1.3 4.4.4 5.8-1.8.4-.5 1.6-.1 2.7.9 1.4 1.2 1.8 2 1 2.5-.7.4-.3 1.1 1.1 1.8 1.1.7 2.1 2.1 2.1 3.1 0 1.6.7 2 3 2 3.4 0 4.1-1.9 1-2.7-2-.5-2.8-2.3-1.1-2.3.5 0 2.8.7 5.1 1.5 3.9 1.4 4.6 1.4 6.6 0 1.3-.8 3.6-1.4 5.1-1.4 1.7.1 2.1.3 1 .6-1.8.5-2.4 2.3-.6 2.3.5 0 .8.3.5.8-.7 1.2 1.7 3.8 4.2 4.4 1.2.4 2.2.2 2.2-.3s.5-.9 1-.9c.6 0 1 1 1 2.1 0 1.7.5 2 2.5 1.7 2.2-.5 2.5-.2 2.5 2.3 0 3.4 1 3.7 2.8.9 1.6-2.6 3.4-2.5 5 0 1.5 2.5.8 4-1.9 4-1 0-1.9.4-1.9 1 0 .5.9 1 1.9 1 1 0 2.1.6 2.4 1.4.4 1 0 1.2-1.5.8-1.7-.4-2-.2-1.5 1.3.6 1.3.3 1.6-.8 1.1-.9-.3-1.3-.2-1 .4.3.6 1.4 1 2.3 1 1.3.1 1.2.4-.6 1.3-1.2.7-2 1.6-1.6 2 .9.9-1.5 3.7-4.1 4.7-1.5.7-.9.8 2.2.8 3.3-.1 4.6-.7 5.8-2.4.8-1.2 2.3-2.5 3.4-2.9 1.2-.3 1.8-1.2 1.5-2-.8-1.9 2.6-1.3 3.7.7.6 1 1.7 1.4 3.1 1 1.3-.3 1.9-.1 1.5.5-.4.6 0 1.4.9 1.7 2.3.9 2.6.8 1.7-.7-.4-.6-.6-2.1-.4-3.1.2-1.4-.2-1.7-1.4-1.3-.9.4-1.3.3-1-.2.3-.6-.2-1.4-1.1-1.9-1.5-.8-1.5-1 0-1.5 1-.4 1.5-.3 1.1.3-.3.6.1 1 .9 1 .9 0 1.6-.6 1.7-1.3 0-.6.4-.2.9 1 .9 2.2 1.1 2.2 5.5.8 2.6-.7 5.2-2.1 5.9-3 1-1.4 1.2-1.1 1.3 2.1 0 2.1.6 4 1.2 4.2.6.2 1.1 1 1.1 1.8s.5 1.4 1 1.4c1.3 0 1.3-.6 0-3-.8-1.6-.8-1.8.5-1.4.8.4 1.5.2 1.5-.4 0-.6-.5-1.2-1-1.4-1.9-.6 1.3-5.9 3.4-5.6 2.7.4 3.1 5.5.6 6.3-2.5.8-1.5 3.5 1.3 3.5 1.2 0 3.4-1.2 4.9-2.7 2.6-2.4 2.8-2.5 2.8-.7 0 1.1-.6 2.6-1.2 3.3-1.1 1.1-.9 1.1.9.2 3-1.5 7.1.2 8.3 3.4.9 2.4 1.3 2.5 8.7 2.4 4.3-.1 6.6-.4 5-.6-2.5-.4-2.7-.8-2.5-4.4.2-2.1.6-3.9 1.1-3.9.4 0 .7.6.7 1.3 0 .8.6 1.4 1.3 1.5 2.3.2 8.7 2.7 8.7 3.4 0 .4-1.5 1.2-3.2 1.7-2.3.6 2.9.9 17.9 1 15.1.1 21.2-.2 21.5-1.1.2-.6 2.9-1.3 5.9-1.6 4.3-.3 5.9 0 7.2 1.2 1.5 1.6 5 1.7 35.4 1.4l33.8-.3.3-7.3c.2-5.8 0-7.2-1.2-7.2-.8 0-1.8-.5-2.2-1.2-.5-.8 0-.9 1.4-.6 1.9.5 2.2.2 2.2-2.3 0-2.9-1.4-3.9-2.3-1.7-.4 1-.8.9-1.6-.2-.8-1.2-.6-1.6 1.2-2 1.9-.5 2.2-1.3 2.5-6.3.3-5.2-.9-7.6-2.1-4.5-.3.8-.6.6-.6-.5-.1-.9.6-1.7 1.4-1.7.8 0 1.5-.5 1.5-1 0-2.9-3.9.4-4.1 3.4-.1 1.6-.2 1.7-.6.5-.3-1.1-1.1-1.5-2.4-1.2-1.8.5-2 .2-1.7-2.3.3-2.7.6-2.9 4.5-2.8 3.9.1 4.1-.1 3.9-2.5-.1-2-.7-2.5-2.1-2.3-1.8.2-1.8 0 .4-1.8 1.8-1.5 2.1-2.3 1.2-3.3-.6-.8-.8-1.7-.4-2.1 1-1 1-8 0-8.7-.4-.3-.9-2-1-3.7-.1-1.8-.5-3.2-.9-3.2-.5 0-.8-1.2-.7-2.8l.1-2.7.7 2.5c.4 1.4 1 2 1.3 1.4 1-1.5.2-4.9-1-4.7-1.2.3-1.1-8.2.1-9.3.4-.4.7-1.6.7-2.6 0-1.1.5-1.6 1-1.3.6.3 1-.1 1-.9 0-1-.6-1.3-1.5-1-2 .8-2-4.6 0-10.1.8-2.4 1.4-7.9 1.5-13.9v-9.8l-2.4.6c-2.5.6-2.5.6-1.2-3.1.8-2.1 1.9-3.7 2.5-3.6 1.6.4 1.4-9.3-.4-15.2-.9-2.8-2-6.7-2.5-8.7-.6-2.1-1.8-3.8-2.7-4-1.5-.3-1.5-.4.1-2.1 1-.9 1.3-1.7.8-1.7s-1.7.9-2.7 2c-2.3 2.5-3.2 1.9-3.2-2.2-.1-2.6.1-2.9.7-1.3.4 1.1.5 2.7.2 3.5-.3.8-.2 1.2.3.8 1.3-1.2 3.5-12.1 3.5-17.9 0-3.1.7-7 1.5-8.5.8-1.6 1.5-2.3 1.5-1.6 0 1 .4 1 2 0 1.8-1.1 2-2.4 2-10.5 0-5-.4-9.4-.9-9.7-1.4-.9-2.1 2-2.1 8.4 0 3.2-.4 6.2-1 6.5-2 1.2-5-1.7-6.4-6.3l-1.5-4.7.1 5c.1 2.7-.4 8.1-1.1 12-.7 3.8-.9 8-.6 9.3.3 1.3.2 2.1-.3 1.8-.5-.3-1.5 2-2.1 5.2-1.7 8.7-4.6 15.6-6.7 16.1-1.1.1-7.9 2.1-15.3 4.2s-13.9 3.9-14.4 3.9c-.6 0-.1-.9 1.1-2.1 1.2-1.1 2-2.5 1.6-3-.3-.5-.1-1.5.4-2.2.6-.7 1.3-3.4 1.7-6 .7-4.3.5-5-1.4-6.4-1.2-.8-2-2.1-1.7-2.9.3-.8-.1-1.4-1.1-1.4-1.4 0-1.4-.3.3-2.2 1-1.2 1.4-1.8.7-1.5-.7.5-1.4-.4-1.8-2.3-.4-1.7-1.6-3.5-2.8-4.2-1.2-.6-2.4-1.5-2.7-1.9-.7-1-13.5-2-25.5-2-4.9 0-10.2-.5-11.7-1.1-2.2-.8-3.1-.7-4.3.6-.9.8-1.6 1.9-1.7 2.3-.1 1.6-5.3 3-8.1 2.2-1.5-.4-2.5-.4-2.2.1.3.5 0 1.2-.6 1.6-.7.4-.9.3-.6-.3.4-.6-.1-1.7-1-2.4-1.5-1.2-1.6-1.2-.9.6.6 1.6.5 1.8-.5.7-1.5-1.4-4.3-1.6-3.4-.2.3.5-.1 1-1 1s-1.4-.3-1.2-.8c.3-.4-1.4-.6-3.6-.6-6.4.2-6.7.3-6.4 1.6.1.8-.8 1.3-2.3 1.3-2.6 0-5.1 1.5-4.4 2.7.2.3-.1.8-.7 1-.6.2-.3 1.3 1 2.8 1.1 1.4 2 1.9 2.1 1.2 0-1.5 3.6-1.6 4.6 0 .4.6.3.8-.4.4-.6-.3-1.3-.2-1.7.4-.9 1.5-6.5 1.3-6.5-.3 0-.6-1.1.1-2.3 1.7-1.3 1.6-2.9 2.6-3.4 2.3-.7-.5-.9.1-.6 1.5.4 1.9.3 2-.6.8-.7-1-1.1-1.1-1.1-.3 0 .9-1.5 1.1-5.1.7-3.9-.4-5.6-.1-7 1.2-1.7 1.5-1.8 1.5-1.6-1.1.2-2.3-.2-2.8-2.5-3-1.5-.2-3.1.1-3.4.7-.4.6-.2.8.4.5 1.3-.9 4.2.2 4.2 1.4 0 1.1-4.7.4-6.3-.9-1.7-1.4-16-1.3-16.9.1-.5.9-1.5.9-3.9 0-3.5-1.3-4.5-1.1-3.4.6.3.6 2.7 1.2 5.3 1.3l4.7.1-5 .7c-3.1.5-.8.6 6 .3 6-.2 11.1-.6 11.4-.8.2-.3-.7-.5-2-.6h-2.4l2.3-.9c1.5-.7 2.9-.6 4.2.3 2.5 1.5 2.5 2.3.3 3.6-1.7 1-1.7 1 0 1.1.9 0 1.7-.4 1.7-.9 0-1 2.6-.9 3.6.2.7.6-1.1 1-2 .4-.2-.1-1.2.5-2.2 1.4-2.2 1.8-6.4 2.3-6.4.7 0-.6 1.1-.8 2.8-.4 1.9.5 2.3.4 1.3-.3-.8-.5-3.8-.8-6.5-.6-4.2.4-4.6.3-2.1-.5l3-.8-3.5.1c-3.9.2-4.4 1.8-.8 2.9 2.3.6 2.3.6.1.7-1.2.1-2.4-.3-2.7-.7-.3-.5-3.2-.8-6.5-.8-3.3.1-5.7-.3-5.4-.8.4-.5.1-.6-.5-.2-.7.4-1.2.2-1.2-.4 0-.6-.5-.8-1.1-.4-.8.4-.7.9.2 1.4 1 .7 1 1.1 0 2.4-.8.9-1.9 1.6-2.5 1.6-.6 0-.5-.4.3-.9 1.7-1.1.5-3.2-1.4-2.4-.8.3-1.5 0-1.5-.7s-.8-1-2-.7c-1.1.3-2.3 0-2.7-.5-.3-.6-.2-.8.4-.5 1.2.7 6.6-2.7 5.7-3.6-.4-.4-1.3-.2-2.1.4-1 .9-1.3.7-1.4-.7-.1-1.4-.3-1.3-.9.6-.5 1.7-.8 1.9-.9.7-.1-1.3-1-1.7-3.8-1.8-3.4-.1-3.5-.2-1.3-.9 2.1-.7 2.2-.8.5-.9-1.6-.1-1.5-.4 1-1.7 2.7-1.4 3-1.4 4.2.2.7 1 1.3 1.4 1.3.8 0-.5.4-.4.8.2.4.6 2.3 1.9 4.2 2.8l3.5 1.7-2.5-2.1c-1.4-1.2-1.8-2-.9-1.7.9.3 2.2.1 3-.5 1.1-.8 1-.9-.3-.4-1 .3-1.8.1-1.8-.4 0-.6-1.3-.9-2.9-.8-1.6.1-3.6-.4-4.5-1.1-1.3-1.1-1.9-1.1-3.1-.1-1.3 1.1-1.4 1-.9-.4.3-.9 1-1.6 1.5-1.6s.9-.5.9-1.1c0-.5-.4-.7-1-.4-.6.4-.7-.1-.3-1.1.5-1.4.2-1.6-2.1-1.2-2.9.6-4.9-1.8-2.7-3.1.7-.4 1.5-2.1 2-3.7.6-2.4 1.3-2.9 4-2.9 2.6-.1 3.1.3 2.8 1.7-.3 1-.1 1.6.3 1.3.5-.3 1.1-.1 1.5.5.3.5 1.2 1 2 1 .9 0 .4-1-1.3-2.7-2.7-2.8-3-2.9-5.6-3.2-2-.2-.8-4.9 1.5-5.6 1-.4 1.8-.9 1.7-1.3-.1-.4.1-1.7.6-3 .8-2.3 2.1-2.9 3.1-1.2.3.5 2.5.9 4.8.9 2.9-.1 3.4-.3 1.7-.7-2.3-.4-2.4-.5-.5-1.3 1.5-.5.8-.8-2.5-.9-3.2 0-4-.3-3-1 1.6-.9 9.7-.1 19.5 2 7.1 1.5 7.4 1.2 6.6-6.3-.1-.4-1.1-.3-2.2.4-2 1-2.1.9-1.6-1 .4-1.9.3-2-.9-1s-1.7.8-2.8-.6c-1.2-1.7-4.2-1.3-3.1.5.3.4-.4.6-1.5.3s-2-1.2-2-1.9c0-.8-.9-1.4-2-1.4-2.8 0-3.6-2.6-2-6.9 1.2-3.6 12.1-18.7 17.9-24.9 1.7-1.8 3.1-3.5 3.1-3.7 0-.8 13.3-13.1 14.8-13.7 1.5-.6 1.5-.7-.2-.7-1.5-.1-1.6-.4-.7-1.5.9-1 .9-2 .2-3.3-.6-1.3-.6-2.4 0-3.4.8-1.2 1-1.2.8.1-.3 3.5 0 3.9 2.6 2.7 1.4-.7 2.5-1.5 2.5-1.9 0-.4 1.7-1 3.8-1.4 2.6-.4 4.1-1.3 4.9-2.9.8-1.8.8-2.5-.1-2.9-.6-.2.1-.5 1.6-.5 2-.1 2.6.3 2.2 1.4-.4.8-1 1.5-1.5 1.5s-.9.4-.9 1c0 .5.7 1 1.5 1s1.5-.3 1.5-.8c0-.4 2.6-.6 5.7-.5 6.3.2 9.1-1.1 7.2-3.3-.9-1.1-.8-1.4 0-1.4 1.6 0 1-5.2-.6-5.8-.8-.2-1.3.5-1.3 1.8 0 1.2-.4 1.8-1 1.5-.5-.3-1-1.4-1-2.3 0-2.6-1.6-4.6-3-3.7-1 .6-.9 1.1.4 2.1 1.2.8 1.4 1.4.6 1.9-.6.4-1.7.1-2.5-.5-1.2-1-1.5-.9-1.5.4 0 .9.7 1.6 1.5 1.6.9 0 1.5 1 1.5 2.6 0 1.7-.4 2.3-1.2 1.8-.8-.5-.9-.2-.5.9s.1 1.7-.7 1.7c-.8 0-1.7-.7-2-1.6-.8-2.2-.8-2.6.4-1.9.6.3 1.5.3 2.1-.1.7-.4.1-1.5-1.7-2.9-1.9-1.5-2.5-2.6-1.8-3.6.4-.8.9-2 1-2.7.2-1-.1-1.1-1.2-.1-.8.6-1.4 1.7-1.4 2.4s-.7 1.6-1.6 1.9c-.8.3-1.3 1-.9 1.5.3.5.1 1.2-.5 1.6-.5.3-1-.2-1.1-1.2 0-1.4-.2-1.4-.9.4-1 2.5-3 3.1-3 .9 0-.7-.9-1.6-2-1.9-1.5-.4-2 0-2 1.4 0 1-.5 1.9-1.1 1.9-.7 0-.9-1-.5-2.6.5-1.8.3-2.4-.5-1.9s-.8.1.1-1.5c.7-1.2.9-3.6.6-5.2-.4-2.1-.2-2.8.7-2.5.7.2 1.1 1.9.9 4.4-.2 3.3.1 4.2 1.8 4.6 1.5.4 2 0 2-1.3 0-1-.6-2.1-1.3-2.3-.6-.3-.2-.6 1-.6 1.3-.1 2.1.4 1.9 1.1-.1.7-.1 1 .1.5.7-1.1 3.1-.8 3.5.5.3.9.6.9 1.2 0 .6-1-5-4.2-7.6-4.2-.5 0-.7-.4-.4-.9.9-1.3-.4-4.2-1.5-3.5-.6.3-1.7 0-2.5-.7s-1.4-.8-1.3-.3c.6 3.2-.2 4.4-2.8 4.3-2.1-.1-2.3-.3-.7-.6 1.8-.3 2.1-1.1 1.9-5.6 0-2.9-.7-6.6-1.5-8.2-1.3-2.9-1.4-2.9-1.8-.6-.2 1.3.2 2.7.8 3.1.8.5.8 1 .2 1.4-1.2.7-2.2-1.6-2.3-5.7-.1-1.8-.3-2.4-.6-1.5-.6 2.3-3.8 2.3-5.5 0-1.6-2.3-5.5-4.5-6.7-3.7-.5.3-1.2-.1-1.5-.7-.3-.9-1.1-.6-2.5 1-1.9 2.1-2 2.2-2.6.3-.6-2.1-3.5-3.7-3.5-2 0 .6-.4.8-.8.5-.4-.2-.8.8-.7 2.2 0 1.7 1.2 3.9 3.4 6 1.9 1.7 3 3.2 2.5 3.2-.6 0-3.1-2-5.7-4.5-2.6-2.4-4.1-4.2-3.2-3.9 1.8.7 2.1-1.2.3-1.9-1-.4-.9-.8.2-1.6 1.2-.9 1-1.1-1-1.1-1.9 0-2.2-.2-1-1 1.7-1.1 1.4-1.5-2-2.4-1.5-.4-2-.4-1.3.1 1.4 1 .5 5.6-.9 4.7-.5-.3-.7-1.3-.3-2.1.4-1.3.3-1.3-.8-.4-1.1.8-1.8.6-3.3-1-1.9-2.1-2-2.5-.3-4.5.5-.7.3-1.1-.6-1.1-.8 0-1.1.5-.8 1 .7 1.2-1.6.6-7-1.7-2.2-1-3.6-1.3-3.3-.8.3.6-1 1-3 .9-2-.1-3.2-.3-2.5-.5 1.7-.6 1.3-2.2-.5-2.2-.8 0-1.3-.4-.9-.9.3-.5 0-1.3-.6-1.7-.8-.4-.9-.3-.5.4 1 1.6-1.6 1.5-3.4-.1-1.2-1-1.2-.9 0 .7 1.3 1.6 1.2 1.8-.5 1.5-1.1-.3-2.6-1.8-3.4-3.4-.8-1.6-1.6-2.4-1.9-1.7-.5 1.7-2.2 1.5-2.2-.3 0-2-1-1.9-2.6.2-1.3 1.7-1.3 1.7-1.4-.2l-.1-2-.9 2c-.5 1.1-.9 1.5-.9.8-.1-.6-1-.9-2.1-.6-1.1.3-2 0-2-.6s-.8-1.1-1.9-1.1c-1 0-2.6-1.1-3.5-2.5-1.8-2.8-3.6-3.3-3.6-1 0 .8-.5 1.5-1.1 1.5-.6 0-.9-.7-.5-1.5.3-.9 0-1.5-.9-1.5-.7 0-2.2-.8-3.1-1.8-1.7-1.6-1.8-1.6-1.1 0 .5 1.4.1 1.8-1.5 1.8s-1.8.3-.9 1.3c1.1 1.4.5 2.7-1.1 2.7-.5 0-.7-.4-.4-.9.3-.5-.5-1.6-1.9-2.5-2.9-1.9-4.9-2.1-3.9-.4.5.9.2.9-.9-.1-.9-.7-1.7-1.9-1.7-2.5 0-.6.4-.5.9.3.6.9 1.1 1 1.5.2.4-.6.4-1.1-.1-1.2-.4 0-1.9-.2-3.3-.3-1.4-.2-2.8.2-3.2.8-.5.8-.8.7-.8-.2 0-.6-1-1.2-2.1-1.2-1.9 0-2-.2-.8-1.7 1.1-1.3 1.1-1.5.1-.9-.8.5-2.2.1-3.5-1.1l-2.2-1.8 2 2.4 2 2.4-2-1.1c-1.1-.6-2.8-2-3.8-3.2-1.5-1.8-2.1-1.9-3.3-.9-1.2 1-1.8.8-3.5-.9-1.1-1.2-2.5-2.2-3.2-2.2-.6 0-.1.7 1.1 1.6 2.5 1.7 2.1 3.7-.5 2.7-.9-.4-1.4-.2-1 .3.3.6.1 1.6-.4 2.4-.7 1.2-.8 1.1-.6-.5.1-1.1.6-2.6 1-3.3.5-.7.3-1.2-.3-1.2s-2.2-1.1-3.4-2.5c-1.3-1.4-3.3-2.7-4.3-2.9-1.6-.4-1.9.1-1.8 2.9l.1 3.2-2.8-2c-3.4-2.5-3.4-2.6-.5-2.1 1.5.4 1.3.1-.8-.9-3.2-1.5-8-.4-6.8 1.6.3.6.1.7-.6.3-.6-.4-.9-1.2-.6-1.7.5-.8-1.6-1.4-3.7-1-.5 0-.8-.5-.8-1.2 0-.8-.3-.8-.9.2-.8 1.2-1.5 1.1-4.4-.9-2-1.4-3.3-2.9-3-3.4.3-.5.1-.6-.5-.2-1.7 1-5.2 1.6-5.1.8.3-2.2-.3-3.2-2.1-3.2-1.1 0-2 .6-2 1.2-.1.8-.6.6-1.4-.5-.8-1-1.7-1.8-2-1.8-.3.1-.9.1-1.3 0-.5-.1-1.9-.1-3.3 0s-3.8-1-5.4-2.4c-3.5-3-3.5-3-2.9-.3.4 2.2.4 2.2-1 .5-.9-1-2.4-2.5-3.4-3.4-1-.8-1.2-1.2-.6-.8.8.4 1.1.1.8-.7-.4-1-1.8-1.2-5.1-.8-2.4.3-4.5.8-4.4 1.2v1.6c0 .4.9.8 2.1.9 2.4.2 5.1 2.2 4.4 3.3-.6 1-8-2.7-8.1-4-.1-.6-.2-1.7-.3-2.6 0-.8-.6-1.2-1.1-.9-.6.4-.7 1.2-.3 1.8.7 1.2-2.3-.8-4.2-2.8-.6-.5-1.9-1.5-3-2.1-2.2-1.2-3.5-4.1-1.4-3 .8.4.5 0-.6-.9s-2.8-1.4-3.7-1.1c-1 .2-2.1-.1-2.5-.6-.3-.7-.1-.8.5-.4 1.5.9 1.5.1.2-2.5-1.2-2.2-3.2-2.6-2.4-.5.4 1-.2 1.2-2.2.8-2.2-.4-2.4-.6-1-1.4.9-.5 1.4-1.3 1.1-1.8-.3-.5-.1-1.1.5-1.5.6-.4.8-1.1.4-1.6-.3-.5-1.1-.6-1.7-.2-.7.4-.6 0 .2-1 1.2-1.5 1-1.8-1.4-2.7-1.4-.5-3.6-1-4.8-1.1-1.5 0-1.7-.2-.7-.6.8-.3 1.8-1.1 2.2-1.6.4-.7 1.1-.7 2 0 1.5 1.2 4.8 1.3 4.8.1 0-.4-.4-.8-.9-.8s-1.6-.6-2.3-1.3C9.1 8 7.6 6.9 6.5 6.2c-1.7-1-1.8-1.1-.2-1.2C7.2 5 8 4.5 8 3.9c0-.6-.9-.9-2-.6-2.4.6-2.5.3-.6-1.5C6.5.6 6.2.4 3.4.3.8.2 0 .6 0 1.9zm9.3 17.7c2.4 3.2.4 3.1-2.1-.1-1.1-1.3-2.2-2.2-2.5-1.9-.3.3-1-.4-1.6-1.5-1.1-2-1.1-2 1.6-.4 1.6.8 3.6 2.6 4.6 3.9zm-1.9 8c.3.8.2 1.2-.4.9-.6-.3-1-1-1-1.6 0-1.4.7-1.1 1.4.7zm-2.9.5c1.1 1.7-.1 2.1-1.5.4-.8-.9-.8-1.5-.2-1.5.6 0 1.4.5 1.7 1.1zm23.6 10.3c.5-.3.9 0 .9.6 0 .7-.7.9-1.6.6-.9-.3-1.8-.6-2-.6-.3 0-.2-.5.2-1.2.6-.9.9-.9 1.2 0 .2.7.8 1 1.3.6zM61 47.2c0 .6-.7.5-1.5-.2S58 45.3 58 44.8c0-.6.7-.5 1.5.2s1.5 1.7 1.5 2.2zm-18 .3c.5 1.4 1.4 2.5 2 2.5.5 0 1 .5 1 1.1 0 1.5-1.6.3-4-3.1-1.2-1.7-1.6-3-1-3 .6 0 1.5 1.1 2 2.5zM3 48c0 .5-.5 1-1.1 1-.5 0-.7-.5-.4-1 .3-.6.8-1 1.1-1 .2 0 .4.4.4 1zm89 7.4c0 .2-.7.9-1.5 1.6-1.3 1.1-1.4 1-.9-.4.5-1.4 2.4-2.3 2.4-1.2zm13 3.1c1.1 1.3 1 1.4-.4.9-.9-.3-1.6-1-1.6-1.5 0-1.3.6-1.1 2 .6zm-59.5 1.3c-.3.3-1.1 0-1.8-.7-.9-1-.8-1.1.6-.5 1 .3 1.5.9 1.2 1.2zm72.8 2.5c-.5.8-.8.7-1.1-.1-.2-.7-.8-1-1.3-.6-1 .6-1.2-.9-.2-1.9 1-1 3.4 1.4 2.6 2.6zM80.5 61c.3.5.1 1-.4 1-.6 0-1.1-.5-1.1-1 0-.6.2-1 .4-1 .3 0 .8.4 1.1 1zm-29 5.8c-.3.3-1.1 0-1.8-.7-.9-1-.8-1.1.6-.5 1 .3 1.5.9 1.2 1.2zM76 69c0 1.1-.7 2-1.5 2-1.7 0-1.8-.2-.9-2.4.9-2.3 2.4-2 2.4.4zm39.5-1c.3.6-.1.7-.9.4-1.8-.7-2.1-1.4-.7-1.4.6 0 1.3.4 1.6 1zm32.3 3c-.7 1-1.4 1.7-1.7 1.5-.4-.4 1.8-3.5 2.5-3.5.2 0-.1.9-.8 2zM99.7 92.2c-.3.8-.6.5-.6-.6-.1-1.1.2-1.7.5-1.3.3.3.4 1.2.1 1.9zM192 92c-.8.5-1.7.7-1.9.4-.3-.3.1-.9.9-1.4.8-.5 1.7-.7 1.9-.4.3.3-.1.9-.9 1.4zm10.5 1c-.5.8-1.1.8-1.7.2-.6-.6-.7-1.6-.3-2.2.5-.8 1.1-.8 1.7-.2.6.6.7 1.6.3 2.2zm8.2 3.7c-.3.3-1.8 0-3.4-.6l-2.8-1.1 2.8.5c1.8.4 2.7.1 2.8-.7 0-1 .2-1 .6 0 .3.7.3 1.6 0 1.9zm8.6-.7c-.5 1.9-2.3 2.9-2.3 1.2 0-.7 2-3.2 2.6-3.2.1 0 0 .9-.3 2zm-15.7 1.3c.8 2.6.2 2.6-2.2.1-2-2.1-2.1-2.3-.3-2.1 1 .1 2.2 1 2.5 2zm7.4 4.4c0 3.1-.2 3.5-1.2 2.2l-2.8-2.8c-1.3-1.2-1.3-1.3.3-.8 1.1.4 1.7.1 1.7-.8 0-.8.5-1.5 1-1.5.6 0 1 1.7 1 3.7zm2.6 1c-1.1 1.1-1.9-.6-1.1-2.4.8-1.7.8-1.7 1.2 0 .3 1 .2 2.1-.1 2.4zm-12.2-1.2c-.3.7.2 1.5 1 1.8 1.7.7 2.2 3.7.6 3.7-.5 0-1-.6-1-1.4 0-.8-1.1-2.3-2.5-3.4l-2.5-2h2.4c1.5 0 2.3.5 2 1.3zm34.6-.5c0 .5-.4 1-1 1-.5 0-1-.5-1-1 0-.6.5-1 1-1 .6 0 1 .4 1 1zm-14.4 9.5c-.2.5.1 1.9.6 3 .8 1.9.8 1.9-.5.2-1.5-1.7-2.8-2.3-2.5-1 .2 1.3-1.4 4.3-2.3 4.3-1.9 0-.8-3.2 1.9-5.6 1.8-1.8 2.1-2.4.9-2-1 .3-1.6.2-1.2-.3.3-.5.2-1.7-.1-2.6-.6-1.3-.9-1.4-1.6-.3-.8 1-.9.9-.5-.3.3-.9.2-2.1-.1-2.6-.4-.5.8.7 2.5 2.7 1.8 1.9 3.1 3.9 2.9 4.5zM238 103c0 .5-.5 1-1.1 1-.5 0-.7-.5-.4-1 .3-.6.8-1 1.1-1 .2 0 .4.4.4 1zm-23.4 4.7c-1.1 1.1-1.7-.4-.9-2.3.7-1.8.8-1.8 1.1-.1.2 1 .1 2.1-.2 2.4zM116 106c0 .5-.5 1-1.1 1-.5 0-.7-.5-.4-1 .3-.6.8-1 1.1-1 .2 0 .4.4.4 1zm113.5 1c.3.5.1 1-.4 1-.6 0-1.1-.5-1.1-1 0-.6.2-1 .4-1 .3 0 .8.4 1.1 1zm-17.5 1c0 1.3-1.1 1.3-3 0-1.2-.8-1.1-1 .8-1 1.2 0 2.2.4 2.2 1zm27.6 2.7c-1.1 1.1-1.7-.4-.9-2.3.7-1.8.8-1.8 1.1-.1.2 1 .1 2.1-.2 2.4zm-38.6.3c.5 0 1.3-.7 1.8-1.6.8-1.5 1-1.5 1.5 0 .4.9.2 1.6-.3 1.6-.6 0-1 .7-1 1.5 0 1.2-.3 1.2-2-.2-1.1-1-1.9-2.4-1.9-3.3.1-1.1.2-1.1.6.2.2 1 .8 1.8 1.3 1.8zm42.7.7c-.3 1-.5.4-.5-1.2 0-1.7.2-2.4.5-1.8.2.7.2 2.1 0 3zm-79.3 5.4c-.3.5-1 .7-1.5.3-.5-.3-.7-1-.3-1.5.3-.5 1-.7 1.5-.3.5.3.7 1 .3 1.5zm71.9-.1c.3 1.1.1 2-.4 2s-.9-.9-.9-2 .2-2 .4-2 .6.9.9 2zm-32.3.4c0 .2-.7.7-1.6 1-.8.3-1.2.2-.9-.4.6-1 2.5-1.4 2.5-.6zm21 1c0 .2-1.1.6-2.5.8-1.3.3-2.2.1-1.9-.3.5-.9 4.4-1.3 4.4-.5zm7.4 7.2c.3.8.2 1.2-.4.9-.6-.3-1-1-1-1.6 0-1.4.7-1.1 1.4.7zm-26.7 3c-.3.3-1.2.4-1.9.1-.8-.3-.5-.6.6-.6 1.1-.1 1.7.2 1.3.5zm-47.5 3.6c-.8.8-.9.4-.5-1.3.4-1.3.8-1.8 1.1-1 .2.7-.1 1.8-.6 2.3zm98.3-2.2c.3.5.2 1-.4 1-.5 0-1.3-.5-1.6-1-.3-.6-.2-1 .4-1 .5 0 1.3.4 1.6 1zm16 0c-.3.5-1.2 1-1.8 1-.7 0-.6-.4.3-1 1.9-1.2 2.3-1.2 1.5 0zm-52.5.4c0 .2-.7.6-1.5 1-.8.3-1.5.1-1.5-.4 0-.6.7-1 1.5-1s1.5.2 1.5.4zm-16.7 10.8c-1 1.1-1.9 1.5-2.1.8-.5-1.5 1.8-4.1 3-3.4.5.3.1 1.5-.9 2.6zM39.5 145c.3.5-.1 1-1 1s-1.3-.5-1-1c.3-.6.8-1 1-1 .2 0 .7.4 1 1zm200.7 1.8c-1.9 1.5-6.3 5.5-9.8 9-7 6.9-8.4 7.3-2.8.8 7.3-8.4 11.9-12.6 13.9-12.5 1.7 0 1.5.4-1.3 2.7zM227 153c0 1.7-.7 2-5 2-2.7 0-5-.4-5-.9s2-.8 4.5-.7c3.2.2 4.5-.2 4.5-1.1 0-.7.2-1.3.5-1.3s.5.9.5 2zm-11.1 1.4c-.9.9-11.5 1.4-13.4.6-1.3-.6.7-.9 5.9-.9 4.4-.1 7.7.1 7.5.3zm9.1 2.1c0 .3-4.8 5.9-10.7 12.4-7.6 8.3-10.9 11.4-11.1 10.1-.2-1.2-1-1.6-2.8-1.2-2.6.5-3.1-.7-1.2-2.6.9-.9.9-1.2-.1-1.2-.7 0-.9-.5-.4-1.3.4-.6.8-3.7.9-6.7.2-9.5-.3-8.9 6.7-9.3 11.7-.6 18.7-.7 18.7-.2zm-26 8.9c0 .3-.4.8-1 1.1-.5.3-1 .1-1-.4 0-.6.5-1.1 1-1.1.6 0 1 .2 1 .4zm-12 9c-3 .7-5.9 1-6.5.7-1.4-.8 3.4-1.9 8-1.9 3.8 0 3.8 0-1.5 1.2zm-9.7 1.3c-1.3.2-3.3.2-4.5 0-1.3-.2-.3-.4 2.2-.4s3.5.2 2.3.4zm-8 1c-.7.2-2.1.2-3 0-1-.3-.4-.5 1.2-.5 1.7 0 2.4.2 1.8.5zm-9.6.9c-.3.3-1.2.4-1.9.1-.8-.3-.5-.6.6-.6 1.1-.1 1.7.2 1.3.5zm-8.4 1.1c-.7.2-1.9.2-2.5 0-.7-.3-.2-.5 1.2-.5s1.9.2 1.3.5zm-8 1c-.7.2-1.9.2-2.5 0-.7-.3-.2-.5 1.2-.5s1.9.2 1.3.5zm-11.3.7c0 .3-.4.8-1 1.1-.5.3-1 .1-1-.4 0-.6.5-1.1 1-1.1.6 0 1 .2 1 .4zm-26.3 3.2c-.3.3-1.2.4-1.9.1-.8-.3-.5-.6.6-.6 1.1-.1 1.7.2 1.3.5zm-5.4 1.1c-1.3.2-3.3.2-4.5 0-1.3-.2-.3-.4 2.2-.4s3.5.2 2.3.4zm-9 1c-.7.2-1.9.2-2.5 0-.7-.3-.2-.5 1.2-.5s1.9.2 1.3.5zm-26.2 2c1.3 1.6 1.2 1.7-.3.4-1-.7-1.8-1.5-1.8-1.7 0-.8.8-.3 2.1 1.3zm9.6-.1c-.3.3-1.2.4-1.9.1-.8-.3-.5-.6.6-.6 1.1-.1 1.7.2 1.3.5zM17.3 193c-.6 2.1-1.2 2.4-3.7 1.4-2.5-.9-1.9-2.2 1.2-2.7 1.5-.2 2.8-.5 2.9-.6 0 0-.1.8-.4 1.9zm17.4-.4c-.3.3-1.2.4-1.9.1-.8-.3-.5-.6.6-.6 1.1-.1 1.7.2 1.3.5zm-8.4 1.1c-.7.2-1.9.2-2.5 0-.7-.3-.2-.5 1.2-.5s1.9.2 1.3.5zM306 219.4c0 .2-1.1.6-2.5.8-1.3.3-2.2.1-1.9-.3.5-.9 4.4-1.3 4.4-.5zm-32.5 6.6c.3.5.1 1-.4 1-.6 0-1.1-.5-1.1-1 0-.6.2-1 .4-1 .3 0 .8.4 1.1 1zm-86.2 5.5c-.3.9-.8 1.4-1 1.1-.3-.3-.2-.9.2-1.5.9-1.6 1.5-1.3.8.4zM166 242.3c0 1-.4 1.5-1 1.2-.5-.3-1-1.8-1-3.3 0-2.1.2-2.4 1-1.2.5.8 1 2.3 1 3.3zm57-3.3c1.2.8 1 1-1 1-1.4 0-3.2-.5-4-1-1.2-.8-1-1 1-1 1.4 0 3.2.5 4 1zm-66 3.5c-.7.9-1.5 1.3-1.7 1.1-.6-.6 2-3.6 2.6-3 .2.2-.2 1-.9 1.9zm229-1.9c0 .8-1.9 1.3-2.4.6-.3-.5.1-.9.9-.9s1.5.2 1.5.3zm-197.5 7c2.6 2.4 3.3 3.6 2.8 5.4-.4 1.7-.2 2.1.8 1.8.8-.3 1.3-1 1.2-1.6-.2-.6.4-.9 1.3-.5 1.2.5 1.2.8-.6 2-2.3 1.6-4 1-4-1.5 0-1-2.5-3.7-5.5-6.1-3-2.4-5.5-4.8-5.5-5.3 0-1.3 5.4 2 9.5 5.8zm59.8-5.9c-.7.2-1.9.2-2.5 0-.7-.3-.2-.5 1.2-.5s1.9.2 1.3.5zm135.1 1.9c.3.8.2 1.2-.4.9-.6-.3-1-1-1-1.6 0-1.4.7-1.1 1.4.7zm4 1.9c-.5 1.1-.1 1.4 1.2.9 1.5-.5 1.6-.4.4.4-.8.6-1.7.9-2 .7-.4-.2-2.5 2.9-4.8 6.8-2.9 5.2-4.7 7.3-6.2 7.4-1.9.2-2 0-.8-1.5.7-.9-.7-.1-3.2 1.8-5.9 4.7-8.7 6-10.7 5.3-.9-.4-1.4-.2-1 .3.3.5-.7 1-2.1.9-2 0-2.6.5-2.4 1.6.1.9-.5 2-1.4 2.3-1.4.5-1.5.4-.5-.8 1.5-1.8-.2-2.4-5.1-1.8-3.4.4-5.5 2.2-2.6 2.2.8 0 .9.3.2 1-1.2 1.2-4.4.3-4.4-1.2 0-1-8.9 0-10.5 1.2-.5.5-6.5 1-13.2 1.2-10.7.3-12.4.1-13.5-1.5-.7-.9-1.9-1.7-2.7-1.7-3.5 0 .3-1.2 9.5-2.9 22.9-4.4 70.1-18.7 73.7-22.3 2.2-2.2 2.8-2.3 2.1-.3zM130 248.1c0 1-.4 1.9-1 1.9-.5 0-1-1.2-1-2.6 0-1.4.4-2.3 1-1.9.6.3 1 1.5 1 2.6zm37 1.4c0 .5-.5.3-1-.5s-1-2-1-2.5c0-.6.5-.3 1 .5s1 1.9 1 2.5zm45.3-2.8c-.7.2-1.9.2-2.5 0-.7-.3-.2-.5 1.2-.5s1.9.2 1.3.5zm-70.8 1.3c1.3.6 1.5.9.5.9-.8 0-2.2-.4-3-.9-1.8-1.2-.2-1.2 2.5 0zm75.8-.3c-.7.2-1.9.2-2.5 0-.7-.3-.2-.5 1.2-.5s1.9.2 1.3.5zm-6.6 1.9c-.3.3-1.2.4-1.9.1-.8-.3-.5-.6.6-.6 1.1-.1 1.7.2 1.3.5zm10 0c-.3.3-1.2.4-1.9.1-.8-.3-.5-.6.6-.6 1.1-.1 1.7.2 1.3.5zm-4.7 1.3c-.8.5-2.8 1.1-4.5 1.4l-3 .6 3-1.4c3.4-1.6 7.2-2.1 4.5-.6zm18.8-.2c-1 .2-2.6.2-3.5 0-1-.3-.2-.5 1.7-.5s2.7.2 1.8.5zm159.5 2c-.5 1.2-.3 1.4.7.8 1-.6 1.2-.4.7.8-.3 1-.2 1.7.2 1.7 1 0 2.4 3.1 1.7 3.8-.6.6-4.6-5.9-4.6-7.6 0-.6.4-1.2 1-1.2.5 0 .6.7.3 1.7zm-5.9 1.8c-.4.8-1 1.5-1.6 1.5-.5 0-.7.4-.4.9.3.5-.4 2-1.5 3.5-2.2 2.8-1.6 3.2 2.5 1.6 2.6-1 3.8-.2 4.2 3 .1.8.9 3.3 1.7 5.5.8 2.2 1.3 4.3 1.1 4.7-.3.4-2.8-.8-5.7-2.6-2.9-1.8-5.8-3.1-6.6-2.8-.8.3-1.1 0-.7-.6.4-.7.2-2-.3-3.1-.8-1.4-.6-2.5.7-4.2 1-1.3 2.4-3.9 3.1-5.7.8-1.7 1.9-3.2 2.7-3.2.8 0 1.1.6.8 1.5zm-188.6.9c-.2.1-1.3 1-2.5 2-2 1.7-2.3 1.7-2.3.3 0-1 .7-1.7 1.6-1.7.8 0 1.2-.4.9-1-.3-.6.1-.7 1-.4.9.4 1.5.7 1.3.8zm21.5-.7c-.7.2-1.9.2-2.5 0-.7-.3-.2-.5 1.2-.5s1.9.2 1.3.5zm29.8 7.9c.4.2 1.9 3.4 3.4 7.1l2.7 6.8-2.5 2.1c-1.4 1.2-3 3-3.6 4.2-.7 1.2-1.8 1.8-2.8 1.6-1.3-.4-2.1.4-3 2.5-.8 2.4-1.7 3.1-3.7 3.1-1.4 0-2.6-.4-2.6-1 0-.5.6-.7 1.4-.4 1 .4 1.4-.2 1.2-1.9 0-1.4-.4-2.3-.7-2.1-.4.2-.9-1.7-1.1-4.1-.3-2.5-1.2-5.2-1.9-6.1-2.1-2.5-1.1-6.5 2.4-10.2 2.7-2.8 3.5-3.1 6.7-2.6 1.9.4 3.8.8 4.1 1zm124.8 2.8c-1.1 2.4-2.9 3.6-2.9 1.8 0-1.2 3.1-5.4 3.6-4.9.3.2-.1 1.6-.7 3.1zm-3.9-.4c0 .5-.4 1-1 1-.5 0-1-.5-1-1 0-.6.5-1 1-1 .6 0 1 .4 1 1zm-13 6.5c0 .8-.4 1.5-.8 1.5-.5 0-.9-.7-.9-1.5s.4-1.5.9-1.5c.4 0 .8.7.8 1.5zm10.3 1c-1 .7-2 1.2-2.1 1-.7-.7 2.3-3.3 3.1-2.8.5.3 0 1.1-1 1.8zm-64 4.7c-.2.5.1.8.8.8.7 0 1 .2.7.5-1 1-3.5-.6-4.7-3.1-1.6-3.5-1.4-3.6 1.2-1.1 1.3 1.2 2.2 2.5 2 2.9zm58.6-1.6c-1.3.7-3.1 1.3-3.9 1.3-.8 0-.3-.5 1.3-1.1 1.5-.5 2.7-1.4 2.7-1.9 0-.6.5-.7 1.1-.3.8.4.3 1.2-1.2 2zM147 276c0 .5-.2 1-.4 1-.3 0-.8-.5-1.1-1-.3-.6-.1-1 .4-1 .6 0 1.1.4 1.1 1zm-6.8.9c-.9.5 0 1.1 3 1.6l4.3.8-4.4.9c-2.8.6-4.7.6-5.4-.1-1.4-1.4-.1-4.1 2-4.1 1.4 0 1.5.2.5.9zm14 2.3c-.7.7-1.2.8-1.2.2 0-1.4 1.2-2.6 1.9-1.9.2.3-.1 1.1-.7 1.7zm199.6-.5c-1 .2-2.8.2-4 0-1.3-.2-.5-.4 1.7-.4 2.2-.1 3.2.1 2.3.4zm8.7.9c-4.6 3.6-18.8 8.9-26.1 9.7-3.4.4-4.6 0-7.4-2.4-1.8-1.6-3.9-2.9-4.6-2.9-.8 0-1.4-.4-1.4-.8s4.6-.9 10.3-1c10.6-.2 23.5-1.8 27.1-3.2 3.3-1.4 4.3-1.1 2.1.6zm-16.2.1c-.7.2-2.1.2-3 0-1-.3-.4-.5 1.2-.5 1.7 0 2.4.2 1.8.5zm-16 1c-.7.2-1.9.2-2.5 0-.7-.3-.2-.5 1.2-.5s1.9.2 1.3.5zM134 282c0 .5-.7 1-1.5 1s-1.5-.5-1.5-1c0-.6.7-1 1.5-1s1.5.4 1.5 1zm161.5 2.8c1.6 1.1 4.1 4.7 2.8 3.9-.6-.4-1.4-.1-1.7.5-.5 1-.7 1-1.2 0-.3-.6-2.2-1.3-4.2-1.3-3.1-.2-3.2-.3-.9-.6 1.5-.2 2.7-1.1 2.7-1.9 0-1.5.9-1.8 2.5-.6zm-6.5 5.3c0 .6-.8.8-1.9.4-1.1-.3-2.2-.1-2.6.5-.8 1.2-2.5 1.3-2.5.1 0-.5.8-1.2 1.8-1.4 3.2-.9 5.2-.7 5.2.4zm-170.9 1.3c-1 1.2-.8 1.3 1.1.9 1.3-.4 2.6-1.1 3-1.7.5-.8 1.1-.7 2 .2.6.6 2.2 1.2 3.5 1.2 1.3 0 2.3.5 2.3 1.1 0 .8-1.6.9-5.1.5-3.3-.5-5.6-.3-6.5.5-.7.6-2.1.9-2.9.5-2.3-.8-1.8-3.4.8-3.9 1.2-.2 2.4-.5 2.6-.6.2 0-.2.5-.8 1.3zM320 294c0 .5-.7 1-1.6 1-.8 0-1.2-.5-.9-1 .3-.6 1-1 1.6-1 .5 0 .9.4.9 1zm-52 1.7c0 .9-1.9 1.3-6 1.3-4.7 0-6 .3-6 1.5 0 .8-.5 1.5-1 1.5-.7 0-.7-.6 0-2 1.7-3.2 13-5.1 13-2.3zM114 297c0 1.3-1.1 1.3-3 0-1.2-.8-1.1-1 .8-1 1.2 0 2.2.4 2.2 1zm185 1.1c0 1.4-1.6 1.1-2.9-.5-1-1.2-.8-1.3.8-.9 1.2.3 2.1.9 2.1 1.4zm3.7-.5c-.3.3-1.2.4-1.9.1-.8-.3-.5-.6.6-.6 1.1-.1 1.7.2 1.3.5zm-199.7 3c0 .8-.3 1.4-.7 1.5-4.5.5-9.4.6-9.7.1-.2-.4 1.2-.8 3.3-.9 2-.1 4-.9 4.6-1.7 1-1.7 2.5-1.2 2.5 1zm44 3.4c0 .5-.4 1-1 1-.5 0-1-.5-1-1 0-.6.5-1 1-1 .6 0 1 .4 1 1zm-57 2c-1.1.7-.4 1 2.5 1 3 0 3.6.3 2.5 1-.8.5-1 1-.5 1.1.6.1-.3.4-2 .8-3.4.8-5.5.4-5.5-1.2 0-1.4 3.2-4.8 3.9-4.2.3.4-.1 1-.9 1.5zm9.8-1.3c-1 .2-2.8.2-4 0-1.3-.2-.5-.4 1.7-.4 2.2-.1 3.2.1 2.3.4zm29.2.3c1.1.7.7 1-1.7 1-1.8 0-3.3-.5-3.3-1 0-1.3 3-1.3 5 0zm17 3.4c0 .2-.7.6-1.5 1-.8.3-1.5.1-1.5-.4 0-.6.7-1 1.5-1s1.5.2 1.5.4zm-65 2.2c0 .2-1.2.4-2.7.4-2.1 0-2.4-.3-1.4-.9 1.3-.8 4.1-.5 4.1.5zm48.5.4c-1.1.5-3.6.9-5.5.9-2.8 0-3.1-.2-1.5-.9 1.1-.5 3.6-.9 5.5-.9 2.8 0 3.1.2 1.5.9zm11.9.6c1.2.5 1.2.9.3 1.9-.9.9-1.8 1-3.4.2-3.7-1.7-.9-3.6 3.1-2.1zm228.2 1.9c-.3.8 0 1.6.7 1.8.9.3.9.9 0 2.8-.6 1.3-1.5 3.5-1.9 4.9-.4 1.4-1.3 3.4-2.1 4.5-1.4 1.8-1.5 1.4-.9-4.8.3-3.7.1-6.7-.3-6.7-.5 0-1.1-.9-1.4-2.1-.5-1.8-.2-2 1.9-1.6 1.3.2 2.4 0 2.4-.5s.5-.6 1.1-.3c.6.4.8 1.3.5 2zM90.5 313c.7 1.2-5.3 4.3-7.1 3.6-1.7-.7-1.8-3.3-.1-3.9 2.1-.9 6.6-.7 7.2.3zm39 2.1c-.8 1.2-3.5 1.2-3.5 0 0-1.1 2.2-2 3.3-1.4.4.2.5.9.2 1.4zm20.5 1.3c1.4 1.8 1.3 1.8-1 1.1-3.4-1-3.7-1.4-2-2.5.8-.5 1.5-.8 1.5-.7 0 .1.7 1.1 1.5 2.1zm23.4 4.5c1.4 3.6 3.4 7.4 4.3 8.5l1.8 2.1-2.4-2c-2.5-2.1-5.3-7.7-6.6-13-1-4.3-.1-2.9 2.9 4.4zm-36.1-2.3c-2.6 2-3.6 1.7-1.5-.4.9-1.1 2.1-1.7 2.5-1.4.5.2 0 1-1 1.8zm6.7-1.6c-2 1.3-4 1.3-4 0 0-.6 1.2-1 2.8-1 2.1 0 2.4.2 1.2 1zm-80 2c-.6 1.1-1.5 2-2 2-1.4 0-1.2-2.7.3-3.3 2.3-1 2.8-.7 1.7 1.3zm69.1 2.2c1 1.8.9 2-.7 1.4-1.8-.6-1.8-.5-.1.8 2.5 1.9.6 2.8-3.1 1.4-2.8-1.1-2.9-1.3-1.4-2.6 1.2-.9 1.2-1.1.2-.6-.9.4-.7-.2.5-1.3 2.2-2.3 3-2.1 4.6.9zm-74.9 2.3c0 .6-.9 1.5-2.1 2.1-1.1.6-1.8 1.3-1.5 1.6.3.4-.4.9-1.5 1.3-1.2.3-2.1 1-2.1 1.5 0 .9-5.9 2.6-7.5 2.1-.5-.2-2.3-.7-4-1.1-2.5-.7-2.6-.8-.7-.9 1.3-.1 2.1-.5 1.7-1-.3-.6.8-.8 2.9-.4 1.9.3 3.6.1 4-.6.4-.6.2-1.1-.3-1.1-.6 0-1.1-.4-1.1-1 0-.5 1.3-.7 3.2-.3 2.1.4 2.9.3 2.4-.5-.3-.6.6-1.5 2.1-2 3.2-1.2 4.4-1.1 4.5.3zm38.2 8c.6 1.8-2.6 3.7-4.8 2.9-1.6-.6-2.1-2.6-.9-3.7 1.2-1.3 5.1-.7 5.7.8zM136 335c0 1-4.4.5-6.7-.8-1.3-.7-2.3-.8-2.3-.3s.6 1.1 1.3 1.4c.6.3.3.5-.8.6-5.5.3-6.5.6-6.5 2.1-.1 1.2-.4 1.1-1.5-.4-1.4-1.8-1.2-2.1 3.3-3.5 3.6-1.2 5.7-1.4 9-.6 2.3.5 4.2 1.2 4.2 1.5zm-98.6.2c-.8 2.9-2.2 3.8-5.5 3.8-1.5 0-2.9.7-3.2 1.5-.4.9-2 1.4-4.9 1.3-2.4-.1-5.3.2-6.5.7-1.5.5-2.3.3-2.3-.4s.5-.9 1-.6c.6.3 1 .1 1-.4 0-.6 1-1.1 2.1-1.1 1.8 0 1.9-.2.9-1.5-1-1.3-.9-1.5.9-1.5 1.1 0 2.1-.4 2.1-.8s2-.9 4.6-1c2.5-.1 5.3-.6 6.2-1.2 3-1.7 4.4-1.2 3.6 1.2zm90.6 3.2c0 .3-.4.8-1 1.1-.5.3-1 .1-1-.4 0-.6.5-1.1 1-1.1.6 0 1 .2 1 .4zm5.5 1.6c-.3.5.1 1.1.7 1.3.8.3.8.6.2.6-.6.1-1.9-.8-2.8-1.8-1.7-1.9-1.7-1.9.3-1.4 1.1.3 1.9.9 1.6 1.3zm8.5.5c1.5 1.8 1.7 1.7-4.2 4.8-4.8 2.5-7.8 2.6-9.8.2-.9-1.1-.4-1.1 2.5-.5 3 .7 3.5.6 3.1-.6-.3-.8-.2-1.3.3-1 .5.3 1.4-.1 2.1-.9.7-.8.9-1.5.4-1.5-1.3 0 1.9-2 3.2-2 .6 0 1.7.7 2.4 1.5zm90 2.1c19.3 4.2 18.3 4 23.7 4.9 2.4.4 4.6 1.2 5 1.8.8 1.4.4 9.9-.5 10.9-.4.3-4.5-.2-9.2-1.3-9.8-2.1-10.3-2.2-9.6-1.1.3.5-.2.9-1 .9s-1.3-.6-1-1.4c.3-.7.1-1.3-.4-1.3-.6 0-1 .4-1 1 0 .5-.7 1-1.5 1s-1.5-.7-1.5-1.5c0-1.6-2.6-2.1-3.2-.5-.4 1.4-4.8 0-4.8-1.5 0-.7-1.7-1.5-3.7-1.9-2.1-.3-5.5-1.1-7.7-1.7l-3.8-1.1.6-5.1c.3-2.9.6-5.3.6-5.5 0-.6 3.6 0 19 3.4zm-104.8-.4c-1 1-6.2.1-6.2-1.1 0-.4 1.6-.5 3.6-.3 2.2.3 3.2.8 2.6 1.4zm269.8.9c0 2.7-.1 2.9-1.6 1.5-1.2-1.3-1.3-1.8-.2-3 1.8-2.1 1.8-2 1.8 1.5zm-384 .8c0 1.4-4.7 4.1-7.2 4.1-2.2-.1-2.2-.2.7-2.5 3-2.5 6.5-3.3 6.5-1.6zm56.5 1.9c-.3.3-1.1 0-1.8-.7-.9-1-.8-1.1.6-.5 1 .3 1.5.9 1.2 1.2zm82.9 1.1l3.6 2.9-3.5.6c-2 .4-3.9.5-4.3.3-.4-.2-1.8.7-3.1 2-2.1 2-2.2 2.3-.6 2.9 1 .4 2.1.1 2.6-.7.6-.9.9-1 .9-.2 0 .6-.5 1.5-1 1.8-1.5.9-9.1-.5-8.5-1.6.4-.5-.2-.6-1.1-.2-1.3.5-1.6.2-1.2-.9.5-1.2-.1-1.5-2.6-1.4-1.8 0-4 .7-4.9 1.4-1.8 1.5-3.7.8-3.7-1.4 0-1.2-4.4-3.9-6-3.7-4.5.6-5.6.6-6-.1-.4-.8 2.1-1.5 5.5-1.6 4.7-.2 10 3.1 8.8 5.5-.2.5.1.3.9-.6.7-.9 1.9-1.4 2.6-1.2.6.3 1.2 0 1.2-.5s1.1-.7 2.4-.5c1.3.3 3.4-.1 4.7-.7 1.9-1.1 2.4-1 3.5.5 1.7 2.3 3.8 1 2.4-1.5-.8-1.5-.6-2.1.7-2.9 2.5-1.5 2.6-1.4 6.7 1.8zm-78.7 1.6c-4.3 2.2-5.7 2.5-5.7 1.2 0-1.8 6.3-4.8 7.2-3.4.3.6-.3 1.6-1.5 2.2zm252.7-1.3c-2.3 4-6 8-8.9 9.8-3.9 2.4-16.6 4.2-23.1 3.3-7.2-1-3.8-2 8.2-2.5 10.4-.4 11.3-.6 15.6-3.6 2.5-1.7 5.2-4.2 6.2-5.6 1.6-2.6 3.4-3.7 2-1.4zm-280.1 2.1c.4-.3 2.1-.7 4-.9 2.3-.2 3.6.3 4.4 1.5 1 1.6.6 1.8-4.3 1.9-3 .1-5.4-.3-5.4-.8 0-.6-1.2-1-2.7-1-2.1 0-2.4-.3-1.4-.9.9-.6 2.2-.6 3.2-.1.9.5 1.9.7 2.2.3zm347.4 1.9c-.3.8-.6.5-.6-.6-.1-1.1.2-1.7.5-1.3.3.3.4 1.2.1 1.9zM38 352c-1.9 1.3-3 1.3-3 0 0-.6 1-1 2.3-1 1.8 0 1.9.2.7 1zm24.7.6c-.3.3-1.2.4-1.9.1-.8-.3-.5-.6.6-.6 1.1-.1 1.7.2 1.3.5zm-32.3 1c1.8.7 2.2 3.4.4 3.4-.6 0-.8-.3-.5-.7.4-.3-.1-1.2-1.1-1.9-1.8-1.4-1.3-1.8 1.2-.8zm193.6.4c2 .6 2.1.8.5.8-1.1 0-2.9-.3-4-.8-2.5-1.1.1-1.1 3.5 0zm-67.7 1.3c.7.6 1.9 2.1 2.7 3.2 1.4 1.9 1.4 1.9-.5.5-3.4-2.7-5.5-5-4.4-5 .6 0 1.6.6 2.2 1.3zm89.2 4.5c-.3.3-1.1 0-1.8-.7-.9-1-.8-1.1.6-.5 1 .3 1.5.9 1.2 1.2zm-74.6 1.3c-1.5.9-3.2.2-2.4-1.1.3-.5 1.3-.6 2.1-.3 1.2.4 1.3.8.3 1.4zm80.8-.5c-.3.3-1.2.4-1.9.1-.8-.3-.5-.6.6-.6 1.1-.1 1.7.2 1.3.5zM22.5 364c-.3.5-1.1 1-1.6 1-.6 0-.7-.5-.4-1 .3-.6 1.1-1 1.6-1 .6 0 .7.4.4 1zM9 375c0 1.3-.6 2-1.7 1.9-1.1 0-1.3-.3-.5-.6.6-.2 1.2-1.1 1.2-1.9 0-.8.2-1.4.5-1.4s.5.9.5 2zm15 0c0 .5-.4 1-1 1-.5 0-1-.5-1-1 0-.6.5-1 1-1 .6 0 1 .4 1 1zm-16 7.6c0 1.4-.4 2.3-1 1.9-.5-.3-1-1.5-1-2.6 0-1 .5-1.9 1-1.9.6 0 1 1.2 1 2.6zm251.6-.1c1.4 1.3 1.3 1.5-.9 1.5-1.4 0-2.4-.6-2.4-1.5 0-.8.4-1.5.9-1.5s1.6.7 2.4 1.5zm-35.4 2.9c.7-.4.8-.2.4.4-1.1 1.8-2.6 1.4-2.5-.6 0-1 .3-1.2.6-.4.2.6 1 .9 1.5.6zm5.3.6c-.3.5-1.4 1-2.3.9-1.4 0-1.3-.2.3-.9 2.7-1.1 2.7-1.1 2 0zM6 390c0 .5-.9 1-2 1s-2-.5-2-1c0-.6.9-1 2-1s2 .4 2 1zm388.5 2.9c-.2.5-1.7.6-3.2.3l-2.8-.6 2.5-.6c2.7-.7 4.3-.3 3.5.9zm-84.6 3.5c2.1 2.5-.9 3.1-3.2.7l-2.1-2.1h2.1c1.1 0 2.6.6 3.2 1.4zm88.1.1c0 .8-.9 1.5-2 1.5s-2-.7-2-1.5.9-1.5 2-1.5 2 .7 2 1.5z"/><path d="M307.3 270.7c.9.2 2.5.2 3.5 0 .9-.3.1-.5-1.8-.5-1.9 0-2.7.2-1.7.5zM242.1 270.6c-1.2 1.5-2.1 3.2-2.1 3.9 0 1.9 2.1 7.5 2.8 7.5.4 0 1.7-1.6 2.9-3.4 1.9-2.9 2-4 1.2-7-1.2-4.3-2.1-4.5-4.8-1zM136 344c0 .5.5 1 1.1 1 .5 0 .7-.5.4-1-.3-.6-.8-1-1.1-1-.2 0-.4.4-.4 1zM214 344.8c0 4.1 2.5 6.7 3.6 3.8 1-2.7-.1-7.1-1.8-7.4-1.5-.3-1.8.4-1.8 3.6zm3-1.2c0 .8-.5 1.2-1 .9-.6-.4-.8-1.1-.5-1.6.9-1.4 1.5-1.1 1.5.7zm0 3.4c0 .5-.4 1-1 1-.5 0-1-.5-1-1 0-.6.5-1 1-1 .6 0 1 .4 1 1zM219 346c0 2.2.2 4 .4 4s1.3.3 2.3.6c1.7.6 1.7.6-.1-.8-1.5-1.2-1.8-2.2-1.3-4.6.4-1.9.2-3.2-.3-3.2-.6 0-1 1.8-1 4zM228 345c-1.2.8-1.2 1-.1 1 .9 0 1.2.9.9 3-.3 1.7-.1 3.3.4 3.6.4.3.8-1.5.8-4s-.1-4.6-.2-4.6c-.2 0-1 .5-1.8 1zM233.2 347c-1.7 2.7-1.5 5.7.3 6.4 2 .7 3.2-2.1 1.7-4.4-.8-1.3-.7-2.1.1-2.9.6-.6.7-1.1.1-1.1-.5 0-1.5.9-2.2 2zm1.4 4.7c-1 1-1.9-.5-1-1.8.6-1.1.8-1.1 1.2 0 .2.7.1 1.5-.2 1.8zM238 348.4c0 1.3.5 2.8 1.1 3.2.8.4.7.9-.2 1.5-.7.4-1.1 1.1-.7 1.4.4.4 1.4-.5 2.4-2 1.3-2 1.5-3.1.8-4.3-1.7-2.6-3.4-2.6-3.4.2zm2.2 1.8c-.9.9-1.2.7-1.2-1.2s.3-2.1 1.2-1.2c.9.9.9 1.5 0 2.4zM245.5 348.8c1.9 1.3 1.6 6-.3 6.5-1.3.4-1.1.5.6.6 1.9.1 2.2-.4 2.2-3.9 0-3.1-.4-4-1.7-4-1.1 0-1.4.3-.8.8zM250.5 350c-.3.5-.1 1 .4 1 .6 0 1 1.4.9 3.1-.2 1.8.2 3.3.7 3.5.6.3.9-1.4.7-4.1-.4-4.3-1.4-5.6-2.7-3.5zM256.5 355c-.1 2.2.4 4 1 4 .5 0 1-1.8 1-4s-.4-4-1-4c-.5 0-1 1.8-1 4zM228.8 354.7c.7.3 1.6.2 1.9-.1.4-.3-.2-.6-1.3-.5-1.1 0-1.4.3-.6.6zM15.5 4c.3.4 1.4 1 2.5 1.3 1.1.3 1.8.2 1.5-.3-.3-.4-1.4-1-2.5-1.3-1.1-.3-1.8-.2-1.5.3zM113.1 3.9c-.7.5-.9 1.1-.5 1.4.5.3 1.5-.1 2.2-.9 1.4-1.6.5-1.8-1.7-.5zM11.3 5.5c0 .8.8 1.6 1.8 1.8 1.1.3 1.6 0 1.2-.8-.7-1.9-3-2.6-3-1zM51 5c0 .5.5 1 1.1 1 .5 0 .7-.5.4-1-.3-.6-.8-1-1.1-1-.2 0-.4.4-.4 1zM28 8.4c0 .3.9 1 2 1.6 1.1.6 2 .8 2 .6 0-.3-.9-1-2-1.6-1.1-.6-2-.8-2-.6zM117 10.7c0 .6.8 1.7 1.8 2.4 1.6 1.3 1.6 1.3.2-.6-.8-1.1-1.6-2.2-1.7-2.4-.2-.2-.3 0-.3.6zM18.9 17.3c.6.8.8 1.7.4 2-.3.4.2.7 1.1.7 1.2 0 1.6-.5 1.2-1.6-.3-.9-.6-1.8-.6-2 0-.2-.7-.4-1.6-.4-1.3 0-1.4.3-.5 1.3zM14 19c0 .5.5 1 1 1 .6 0 1-.5 1-1 0-.6-.4-1-1-1-.5 0-1 .4-1 1zM23.7 22.1c.7.7 1.5 1 1.8.7.3-.3-.2-.9-1.2-1.2-1.4-.6-1.5-.5-.6.5zM42.8 27.2c.2 1 1.2 1.8 2.1 1.6.9-.1 2.7.5 4.1 1.5 4 2.8 4.5 2 .9-1.4-4-3.7-7.9-4.6-7.1-1.7zM24.5 27c-.4.6-.4 1.4-.1 1.7.3.4.6.1.6-.5 0-.9.5-.9 2 0 1.4.9 1.6 1.5.7 2.1-.9.6-.9.8.1.5 2.1-.5 1.9-1.9-.5-3.5-1.5-1-2.3-1.1-2.8-.3zM31 31.9c0 .5.7 1.2 1.6 1.5 1.4.5 1.5.4.4-.9-1.4-1.7-2-1.9-2-.6zM37.4 31.8c.4.3 1.4.7 2.2.8.9.1 1.3 0 1-.4-.4-.3-1.4-.7-2.2-.8-.9-.1-1.3 0-1 .4zM28.5 34c.3.5.8 1 1.1 1 .2 0 .4-.5.4-1 0-.6-.5-1-1.1-1-.5 0-.7.4-.4 1zM55.8 36.9c1 .6.7 1-1.2 1.3-1.4.3-2.7 0-2.9-.6-.2-.6-.8-.8-1.2-.4-.4.3 1 1.8 3.2 3.1 2.7 1.8 4.2 2.2 5.1 1.4.9-.7 1.9-.4 3.5.9 1.5 1.4 1.8 1.4.9.2-1.4-1.7-.1-3.5 1.7-2.3.5.3 1.3 0 1.7-.7.4-.7.4-1-.1-.6-.4.4-1.6.3-2.6-.2-1.3-.8-1.8-.6-2.1.8-.3 1.4-.7 1.3-2.9-1.1-1.5-1.5-3-2.7-3.5-2.7s-.3.4.4.9zM68 39.9c0 .6.5 1.3 1 1.6.6.3 1-.1 1-.9 0-.9-.4-1.6-1-1.6-.5 0-1 .4-1 .9zM151 42c0 .5.5 1 1.1 1 .5 0 .7-.5.4-1-.3-.6-.8-1-1.1-1-.2 0-.4.4-.4 1zM79 49.6c0 .8.5 1.2 1 .9.6-.4.8-1.1.5-1.6-.9-1.4-1.5-1.1-1.5.7zM93 48.4c0 .2.8 1 1.8 1.7 1.5 1.3 1.6 1.2.3-.4S93 47.6 93 48.4zM107.7 50.7c-1 .9-.9 2.3.1 2.3.5 0 .9-.7.9-1.5 0-1.7-.1-1.8-1-.8zM128 60c0 .5.5 1 1 1 .6 0 1-.5 1-1 0-.6-.4-1-1-1-.5 0-1 .4-1 1zM132 61.6c0 .2.9.8 2 1.4 1.5.8 1.8.8 1.4-.3-.4-1.1-3.4-2.1-3.4-1.1zM162 70c0 .9 3.9 2.5 4.5 1.8.2-.2-.7-.8-2.1-1.5-1.3-.6-2.4-.7-2.4-.3zM204.5 86c-.3.5-.3 1 .2 1 .4 0 .1.5-.7 1-.8.5-1 1-.4 1 1.7 0 3.7-2.7 2.5-3.4-.5-.4-1.2-.2-1.6.4zM247.7 100.4c-.4 1-.7 3.2-.6 4.9.1 3.1.1 3.1 1-.7 1-4.3.7-7.2-.4-4.2zM252 109.1c0 1.1.4 1.8 1 1.4.5-.3.7-1.2.3-2-.7-2.1-1.3-1.9-1.3.6zM258 109.1c-1.5.4-1.8.7-.8.8.9.1 1.8.8 2 1.8.3 1.4.5 1.4 1.5.2 1.7-2.1.2-3.7-2.7-2.8zM269.8 109.7c.7.3 1.6.2 1.9-.1.4-.3-.2-.6-1.3-.5-1.1 0-1.4.3-.6.6zM264.9 113.8c1.3 2.4 4.1 4.8 4.1 3.5 0-1.2-3.4-5.3-4.4-5.3-.4 0-.2.8.3 1.8zM274.4 113.6c.3.9.6 2 .6 2.5s.4.9.9.9c.4 0 .6-1.1.3-2.5-.2-1.4-.9-2.5-1.4-2.5-.6 0-.7.7-.4 1.6zM259 115c0 .7 2.4 2 3.6 2 1.3 0 .1-1.9-1.6-2.3-1.1-.3-2-.2-2 .3zM279.6 114.9c-.4.7-.5 1.5-.2 1.8.9.9 1.9-.4 1.4-1.8-.4-1.1-.6-1.1-1.2 0zM271.5 117c.3.5.8 1 1.1 1 .2 0 .4-.5.4-1 0-.6-.5-1-1.1-1-.5 0-.7.4-.4 1zM238.6 172.7c-.6 1.4-.5 1.5.5.6.7-.7 1-1.5.7-1.8-.3-.3-.9.2-1.2 1.2zM385.1 172.5c-.1 3 3.6 16.7 4.7 17.4.6.3 1.2 1.7 1.5 3.1.3 1.4.4.1.3-2.9-.2-3.6-.9-5.8-2-6.6-.8-.7-1.3-1.4-1-1.8.3-.3.1-1.3-.4-2.4-.6-1-1.5-3.4-2-5.3-.6-2-1-2.7-1.1-1.5zM387.1 172.6c0 1.1.3 1.4.6.6.3-.7.2-1.6-.1-1.9-.3-.4-.6.2-.5 1.3zM236 175c0 .6.7 1 1.5 1s1.5-.2 1.5-.4-.7-.6-1.5-1c-.8-.3-1.5-.1-1.5.4zM291.4 177c0 1.6.7 2 3.3 2 3.5 0 3.6.1 2.7 2.3-.3.9-1.3 1.3-2.7.9-2-.5-2-.6-.1-1.3 1.5-.6 1.2-.8-1.4-.8-1.8-.1-3.1.3-2.8.7.3.5-.8.6-2.5.4-1.6-.2-2.9-1-2.9-1.8s-.5-1.4-1.1-1.4c-.5 0-.8.4-.4.9.3.5 0 1.3-.6 1.6-.5.4-.8 1.3-.5 2.1.3.8 0 1.4-.7 1.5-.7 0-2 .2-2.9.4-.9.2-2.3-.4-3-1.3-1.1-1.4-1-1.5.6-.9 1.5.6 1.7.5.7-.7-.9-1.1-.9-1.5.1-1.8.9-.3.9-.6 0-1.2-.7-.4-1.6.2-2.3 1.8-.7 1.4-2 2.8-3.1 3.1-1 .4-1.8 1.1-1.8 1.6s.3.8.8.6c.4-.1.7.2.8.8 0 .5-.7.9-1.8.7-1-.2-1.8.2-1.8.8 0 .6.4.9.8.6.4-.2 1.4-.1 2.2.5 1.3.7 1.2.9-.2.9-1 0-1.8.4-1.8 1 0 .5-.7.7-1.5.4-.8-.4-1.5-.1-1.5.5s-.1 1.4-.2 1.8c-.4.9 9.6 1.8 17.5 1.5 2.7-.2 3.7-.6 3.7-1.8 0-1.2.4-1.4 1.3-.6.7.5 2.1.6 3.2.1 3.2-1.2 8.8-1 11.8.6 2.7 1.4 8.1 1.3 16.7-.2l3.5-.7-3.5-.5c-3.2-.6-3.5-.9-3.8-4.4-.2-2-.7-3.7-1.2-3.7s-1.5-.6-2.3-1.4c-.7-.8-3.4-1.6-5.8-1.8-4.2-.3-4.4-.1-5.4 3-1.1 3.9-2.5 4.2-2.5.4 0-3 1.6-5.6 4-6.6.8-.3.1-.4-1.6-.2-1.7.3-3.5.1-4-.3-.5-.5-2-1.1-3.4-1.4-2.1-.5-2.6-.3-2.6 1.3zm-4.4 6.4c-.7.7-1.3.7-2 0-.6-.6-.3-1 1-1s1.6.4 1 1zM388.1 176.6c0 1.1.3 1.4.6.6.3-.7.2-1.6-.1-1.9-.3-.4-.6.2-.5 1.3zM375.8 194c-.3 5.8-1.3 12.5-2.2 14.9-2.2 6-1.1 6.5 1.5.7 2.5-5.8 3.3-13.3 2.2-20.6-.9-5.4-.9-5.4-1.5 5zM249.5 186.1c-.4.6-.5 1.2-.2 1.5.2.3.7-.2 1-1.1.7-1.7.1-2-.8-.4zM256.5 186c-.3.5-.1 1 .4 1 .6 0 1.1-.5 1.1-1 0-.6-.2-1-.4-1-.3 0-.8.4-1.1 1zM227.2 189.5c-1.2 1.4-1.8 2.5-1.2 2.5.5 0 1.3-.6 1.7-1.4.4-.7 1.5-1.5 2.3-1.8.9-.3 1-.7.4-1.1-.6-.3-2.1.5-3.2 1.8zM259.6 187.9c-.4.7-.5 1.5-.2 1.8.9.9 1.9-.4 1.4-1.8-.4-1.1-.6-1.1-1.2 0zM244.5 188.8c-.5.4-1.1 1.6-1.3 2.7-.3 1.9-.2 1.9 1.3.3 1.8-1.7 1.8-4.3 0-3z"/><path d="M298 195c0 .5.7.7 1.5.4.8-.4 1.5-.8 1.5-1 0-.2-.7-.4-1.5-.4s-1.5.4-1.5 1zM256.7 195.7c-1.5.4-1.6.7-.5 2.1 1.1 1.3 1 1.5-.5.9-1-.4-1.6-.3-1.2.3.3.5-.4 1.4-1.6 2.1-1.9.9-2.1.9-1.6-.4.6-1.6-2-1.8-3.1-.1-1.1 1.4-3.2 1.5-3.2.1-.1-.7-.6-.5-1.4.6-1.4 1.8-1.6 1.8-6.8 0-2.9-1-5.4-2.1-5.6-2.6-.2-.4-1.1-.7-2-.7-1.3 0-1.4.2-.3.9.9.6 1 1.1.2 1.5-.6.4-1.1 1.3-1.1 1.9 0 .7.5.4 1.1-.6 1-1.7 2.9-1.5 2.9.4 0 .6-.4.7-1 .4-.5-.3-1-.2-1 .4 0 .5.5 1.3 1 1.6.6.4.8 1 .5 1.4-.6 1.1 7.9 2.3 10.1 1.4.9-.3 1.9-.1 2.3.4.3.6 3.8 1.4 7.6 1.7 3.9.4 12.7 1.3 19.6 2.1 24.3 2.8 52.6 4.6 70.2 4.6 9.9 0 18.2-.2 18.5-.5.3-.3-.3-1.5-1.3-2.6-1.8-1.9-1.7-2 .1-2.1 1.8 0 1.8-.1-.1-.9-1.1-.4-7.5-.8-14.3-.9-6.8 0-12.7-.3-13.1-.5-.4-.3-4.1-.7-8.2-1.1-16.9-1.3-32.4-3.7-34.2-5.3-.9-.8-2-1.2-2.4-.9-.3.4 0 .8.8.8.8.1-.4.5-2.6.9s-4.4.4-5 0c-1.4-1.1-8.8-1.6-10.3-.6-1.6 1-10.2-.4-10.2-1.6 0-.6-.7-.5-1.5.2-.9.7-1.8 1-2.2.6-.4-.3.2-1.3 1.3-2.1 1-.8 1.5-1.5 1-1.5s-.3-.7.4-1.5 1.1-1.4.9-1.4c-.2.1-1.2.3-2.2.6z"/><path d="M268 196.9c0 1 6.9 2.5 7.7 1.7.7-.6-4.1-2.6-6.3-2.6-.8 0-1.4.4-1.4.9zM265 198.5c0 .8.2 1.5.4 1.5s1.1.3 2 .6c.9.3 1.6.1 1.6-.5s-.7-1.1-1.6-1.1c-.8 0-1.2-.5-.9-1 .3-.6.1-1-.4-1-.6 0-1.1.7-1.1 1.5zM287.9 199.3c.5.5 2.6.7 4.7.5l3.9-.3-4.7-.5c-2.6-.3-4.3-.1-3.9.3zM277.5 200c.3.5 1 1 1.6 1 .5 0 .9-.5.9-1 0-.6-.7-1-1.6-1-.8 0-1.2.4-.9 1zM298.3 199.7c.9.2 2.3.2 3 0 .6-.3-.1-.5-1.8-.5-1.6 0-2.2.2-1.2.5zM119 203.1c0 1.1.4 1.8 1 1.4.5-.3.7-1.2.3-2-.7-2.1-1.3-1.9-1.3.6zM209.5 213c-.3.5-.1 1 .4 1 .6 0 1.1-.5 1.1-1 0-.6-.2-1-.4-1-.3 0-.8.4-1.1 1zM221 214.5c0 .2 1.2 1.1 2.8 1.9 2 1.1 2.2 1.5.9 1.6-1.1 0-1.5.4-1.1 1.2.5.8 0 .9-1.7.4-4.7-1.5-6.9-1.8-8.1-1.3-1.8.6-3.3.3-3-.6.1-.5-.2-.6-.8-.2-.6.3-.8 1.1-.5 1.6.4.5.2.9-.4.9-.5 0-1.1-.5-1.3-1.1-.2-.6-1.4-.8-3.1-.4-3.3.9-2.8 1.7 1 2.1 1.6.1 3.7.5 4.8.8 1.1.2 2.2.5 2.4.5.3.1-.8 1.4-2.4 3.1-3.5 3.7-5.8 3.8-10.4.4l-3.6-2.6 3 2.9c4.3 4.2 8 4.7 10.6 1.4 2.6-3.2 5.8-5.1 7.8-4.3 1 .4 1.2.1.7-.7-.5-.8-1.8-1-3.2-.7-1.7.5-2.4.2-2.4-.9 0-2 1.8-1.9 6.3.4 2 1 3.7 1.5 3.7 1 0-.4.8-.5 1.7-.2 1.3.5 1.5.2 1-1.1-.7-1.8.4-1.5 3.5 1.2 2.1 1.8 4.4.7 2.7-1.4-.6-.8-1.6-1.4-2.1-1.4s-2.4-1.1-4.2-2.5c-3.2-2.4-4.6-3-4.6-2zM291 217.4c0 .2.7.7 1.6 1 .8.3 1.2.2.9-.4-.6-1-2.5-1.4-2.5-.6zM287.8 219.7c.7.3 1.6.2 1.9-.1.4-.3-.2-.6-1.3-.5-1.1 0-1.4.3-.6.6zM350.1 224.7c0 2.5.1 2.6.9.8 1.2-2.7 1.2-3.5 0-3.5-.5 0-1 1.2-.9 2.7zM354 223c0 .5.5 1 1 1 .6 0 1-.5 1-1 0-.6-.4-1-1-1-.5 0-1 .4-1 1z"/><path d="M224.6 224.4c.3.8 1.3 1.7 2.2 2.1 1.3.5 1.3.2-.3-1.5-2.1-2.4-2.6-2.5-1.9-.6zM231.8 224.7c.6.2 1.8.2 2.5 0 .6-.3.1-.5-1.3-.5-1.4 0-1.9.2-1.2.5zM159.6 227.5c-.9 2.6-.7 3.2.5 1.2.6-1 .9-2.1.6-2.3-.2-.3-.7.2-1.1 1.1zM219 229.6c0 .8.9 1.4 2 1.4s2-.4 2-.9-.9-1.1-2-1.4c-1.3-.3-2 0-2 .9zM227 230.6c0 1-.6 1.4-1.5 1-.8-.3-1.5 0-1.5.5 0 .6.9.9 2 .6 1-.3 2.1 0 2.3.7.2.6.8.8 1.2.4.4-.4.3-1.4-.3-2.1-.7-.8-.9-1.7-.5-2 .3-.4.1-.7-.5-.7-.7 0-1.2.7-1.2 1.6zM160 232c0 .5.5 1 1.1 1 .5 0 .7-.5.4-1-.3-.6-.8-1-1.1-1-.2 0-.4.4-.4 1zM212.3 233.7c-.7 1.4-.7 2.3-.1 2.3 1.2 0 4.3-3 3.1-3-.4 0-.1-.5.7-1 1.2-.7 1.1-.9-.6-.8-1.1.1-2.5 1.2-3.1 2.5zM231.5 233c.4.6 1.1.8 1.6.5 1.4-.9 1.1-1.5-.7-1.5-.8 0-1.2.5-.9 1zM248.5 232.9c.6 1.1.3 1.3-1.4.8-1.7-.4-2-.2-1.2.7.7.9.7 1.7-.2 2.6-.6.8-.1.6 1.2-.5 2.4-2 2.4-2 1.7 0-.5 1.5-.4 1.7.5.8.6-.6 1.9-.9 2.8-.7.9.3.5-.1-.9-.9-1.4-.9-2.3-1.8-2.2-2.2.2-.4 0-1-.4-1.3-.4-.4-.4-.1.1.7zM206.6 233.8c-.3.5.1.9.9.9s1.2-.4.9-.9c-.3-.4-.7-.8-.9-.8-.2 0-.6.4-.9.8zM224 236c-1.8 1.2-.2 1.2 2.5 0 1.3-.6 1.5-.9.5-.9-.8 0-2.2.4-3 .9zM242.8 235.7c.7.3 1.6.2 1.9-.1.4-.3-.2-.6-1.3-.5-1.1 0-1.4.3-.6.6zM209.3 243.7c.9.2 2.5.2 3.5 0 .9-.3.1-.5-1.8-.5-1.9 0-2.7.2-1.7.5zM109.6 331.9c-.4.7-.5 1.5-.2 1.8.9.9 1.9-.4 1.4-1.8-.4-1.1-.6-1.1-1.2 0zM99 345.4c0 .2.8 1 1.8 1.7 1.5 1.3 1.6 1.2.3-.4s-2.1-2.1-2.1-1.3zM103.6 347.9c-.4.5.3.7 1.4.4 2.3-.6 2.6-1.3.6-1.3-.8 0-1.7.4-2 .9zM78.6 354.5c-1.9 1.5-1.9 1.5.1 1.5 1.2 0 2.5-.5 2.8-1.1.5-.6 1.3-.3 2.2 1 .8 1.2 2.2 2.1 3.1 2.1 1.5-.1 1.6-.2.1-1.3-.9-.7-1.4-1.8-1.2-2.5.6-1.7-4.7-1.5-7.1.3z"/><path d="M87 354c0 .5.3.9.8.7.8-.2 1.2.6 1.2 3.1 0 1.4-.8 1.9-2.9 2-1.5 0-4.3 1-6.2 2.2-1.9 1.2-2.5 1.9-1.4 1.5 5.7-2 7.8-2.3 10.1-1.4 2.2.8 2.5.7 1.9-1-.3-1-.1-3 .4-4.4.8-2 .7-2.7-.5-3.1-2.3-.9-3.4-.7-3.4.4zM97.5 354c-.4.6-1.1.7-1.7.4-.7-.4-.8-.2-.4.4.4.7.1 1.2-.8 1.2-2.2 0-2 1.3.4 2.8 1.2.7 2 .8 2 .2 0-.5.7-1 1.6-1 .8 0 1.2-.5.9-1-.4-.6-1.1-.7-1.7-.4-.7.4-.8.2-.4-.4.4-.7 1.4-1.2 2.2-1.2.8 0 1.4-.5 1.4-1 0-1.3-2.7-1.3-3.5 0zM119.5 359c-.3.5-.2 1 .4 1 .5 0 1.3-.5 1.6-1 .3-.6.2-1-.4-1-.5 0-1.3.4-1.6 1zM93 360.4c0 .9.5 1.6 1 1.6.6 0 1-.4 1-.9 0-.6-.4-1.3-1-1.6-.5-.3-1 .1-1 .9zM123 361.1c0 .6-.9.8-2.1.4-1.8-.6-2-.4-1.4 1.7.4 1.2.9 2.5 1.1 2.7.6.7 5.3-4.3 4.8-5.1-.7-1.2-2.4-1-2.4.3zM127.4 361.1c-.3.6-.1 1.6.5 2.2.8.8 1.1.5 1.1-1.1 0-2.4-.5-2.8-1.6-1.1zM144.3 361.2c-.6.9-.5 2.1.2 3.6.8 1.5 1.5 2 2 1.3.3-.6 1.1-.9 1.6-.6.5.4.9-.1.9-.9 0-.9-.4-1.6-1-1.6-.5 0-1-.7-1-1.5 0-1.8-1.4-2-2.7-.3zM111.5 362c.4.6 1.1.8 1.6.5 1.4-.9 1.1-1.5-.7-1.5-.8 0-1.2.5-.9 1zM136.1 362.2c-.1.9.5 1.9 1.2 2.2.6.3.2.3-.9.1-1.3-.4-2.4 0-2.7.8-.4 1 .7 1.9 3.4 2.7 2.2.8 4.4 2.1 4.9 2.9.5.9 1.2 1.3 1.5.9.4-.4-.4-2.1-1.9-3.8-1.4-1.8-2.4-3.6-2-4.1.3-.5-.1-.9-1-.9-.8 0-1.7-.6-1.9-1.3-.4-.7-.6-.6-.6.5zM52 363c0 1.3 1.8 2.2 2.4 1.1.3-.5-.1-1.1-.9-1.5-.8-.3-1.5-.1-1.5.4zM61 363c0 .5 1 1 2.3 1 1.8 0 1.9-.2.7-1-1.9-1.3-3-1.3-3 0zM71 362.4c0 .2.7.7 1.6 1 .8.3 1.2.2.9-.4-.6-1-2.5-1.4-2.5-.6zM154 363.7c-1.4.7-1.8 1.3-1 1.3 1.7 0 4.7-1.7 4-2.3-.3-.2-1.6.2-3 1zM68.5 364c.3.5.8 1 1.1 1 .2 0 .4-.5.4-1 0-.6-.5-1-1.1-1-.5 0-.7.4-.4 1zM84.8 364.7c.7.3 1.6.2 1.9-.1.4-.3-.2-.6-1.3-.5-1.1 0-1.4.3-.6.6zM113.2 364.9c.3.8 1.6 1.8 3 2.2 2 .5 2.5.4 2.1-.6-.2-.8-1.1-1.1-2-.8-.8.3-1.9 0-2.5-.8-.8-1.2-.9-1.2-.6 0zM71 365.9c0 .6.5 1.3 1 1.6.6.3 1-.1 1-.9 0-.9-.4-1.6-1-1.6-.5 0-1 .4-1 .9zM80.5 366c.4.6-.9 1-3.2 1.1-2.1.1-2.9.3-1.8.6 1.1.3 2.8 1.2 3.8 2.1 1.7 1.5 1.7 1.6-.5 3-1.5.8-1.6 1.1-.5.8 1-.3 2.7-.6 3.7-.6s2-.6 2.3-1.4c.8-1.9-1.5-6.6-3.1-6.6-.7 0-1 .4-.7 1zM120.5 367.9c-.3.6.2 1.1 1.4 1.1 2 0 2.2 1.3.7 4-.7 1.2-.6 1.3.5.2.7-.6 2-1.2 2.9-1.2 1.1 0 1.6-.8 1.5-2.3-.1-1.7-.9-2.3-3.2-2.5-1.7-.2-3.4.2-3.8.7zM35.5 369c-.3.5-.1 1 .4 1 .6 0 1.1-.5 1.1-1 0-.6-.2-1-.4-1-.3 0-.8.4-1.1 1zM54.5 369c-1.6.7-1.7.9-.3.9.9.1 2-.4 2.3-.9.7-1.1.7-1.1-2 0zM67.6 368.9c-.3.5.1 1.1.9 1.5.9.3 1.5 0 1.5-.9 0-1.6-1.6-2-2.4-.6zM110.5 368.9c-2.5.7-3.1 3.1-.7 3.1 1.6-.1 5.2-2.2 5.2-3.2 0-.6-2-.6-4.5.1zM146.9 368.2c-1 2-.3 4.7 1.4 5.2 1.5.4 1.7.2.8-.7-1.5-1.5-1.4-2.7.4-2.7.8 0 1.5-.5 1.5-1 0-.8-3.7-1.5-4.1-.8zM153.2 369.1c.3.8-.2 1.9-1.1 2.6-1.4 1.1-1.2 1.2 1 1.3 1.7 0 3 .8 3.7 2.2 1 2.2 1.1 2.2 1.1.2.1-1.1-.5-2.6-1.1-3.3-1.1-1-.7-1.1 1.7-.5 2.7.6 2.8.5 1.5-.9-2.1-2.2-7.4-3.4-6.8-1.6zM177 369.5c-1 1.3-.9 1.5.8 1.5 1.5 0 2-.5 1.6-1.5-.4-.8-.7-1.5-.9-1.5-.1 0-.8.7-1.5 1.5zM71 370c0 .5.7 1 1.6 1 .8 0 1.2-.5.9-1-.3-.6-1-1-1.6-1-.5 0-.9.4-.9 1zM96.2 370.3c-1.2.7-2 1.6-1.7 1.9.7.7 5.5-1.4 5.5-2.5 0-1-1.1-.8-3.8.6zM39.5 371.1c-.4.6-.5 1.2-.2 1.5.2.3.7-.2 1-1.1.7-1.7.1-2-.8-.4zM88.3 371.8c-1.6.5-2 1.1-1.4 2.1.7 1 1.3 1.1 3 .2 1.2-.7 1.9-1.6 1.6-2.2-.4-.5-.7-.9-.8-.8-.1.1-1.2.4-2.4.7zM103.4 371.9c.3.5-.1 1.1-.9 1.5-.8.3-1.5 1.1-1.5 1.7 0 .7.8.5 2-.6 2.2-2 2.6-3.5.9-3.5-.5 0-.8.4-.5.9zM130.5 372c.3.5.8 1 1.1 1 .2 0 .4-.5.4-1 0-.6-.5-1-1.1-1-.5 0-.7.4-.4 1zM34.5 372.7c-3.6.9-4.1 2.3-.7 2.3 2.2 0 3.2-.5 3.2-1.5 0-.8-.1-1.4-.2-1.4-.2.1-1.2.3-2.3.6zM66.5 373.4c-2.9 1.6-4.5 3.3-3.8 3.9.3.3 1 .1 1.7-.4.6-.5 2-1.6 3.1-2.4 2.5-1.7 1.7-2.7-1-1.1zM134.3 372.7c1.8.4 1.8.6.1 2.4-2 2.2-.4 2.6 2.6.6 1.7-1 2.2-.9 3 .3.5.8 1 1 1 .4s1-1.6 2.3-2.2l2.2-1-2.2.1c-1.3.1-2.3.6-2.3 1.2 0 .5-.4.4-.9-.3-.4-.7-2.3-1.5-4.2-1.7-1.9-.2-2.6-.1-1.6.2zM175 374.4c0 .9.9 1.4 2 1.3 2.9-.2 3.2-2.2.4-2.5-1.5-.1-2.4.4-2.4 1.2zM170.6 375.8c-.2.4.1 1.4.7 2.2 1.5 1.9 7.7 5.4 8.4 4.7.2-.3-.8-1.2-2.4-2.1-1.5-.8-2.4-1.5-1.9-1.6 1.1 0-2.4-4-3.5-4-.4 0-1 .3-1.3.8zM188 376.5c-.1.5-.2 1.4-.1 1.9.3 1.3-2 3.6-3 3-.5-.3-.6.2-.3 1 .8 2 .9 2 2.9-.1 1.2-1.2 1.9-1.3 2.4-.4.5.8 1.3.5 2.7-1 1.9-2.2 1.9-2.2-.4-1.6-1.8.4-2.2.2-1.8-.9.3-.8.2-1.3-.3-.9-.5.3-1.2-.1-1.4-.7-.3-.7-.6-.9-.7-.3zM37.5 378c-.3.6.1.7.9.4 1.8-.7 2.1-1.4.7-1.4-.6 0-1.3.4-1.6 1zM49.9 378.4c.9 1.1.4 1.7-2.1 2.9-1.8.9-2.6 1.7-1.8 1.7 2.5 0 6-2.9 5.4-4.5-.4-.8-1.1-1.5-1.6-1.5-.7 0-.6.5.1 1.4zM79.7 378.7c.3.7.9 1.1 1.3.8.5-.3 1.1-.1 1.5.5 1 1.7 2.5 1.1 1.8-.8-.6-1.5-.5-1.5 1.1-.3 1.2 1 1.4 1.6.5 2.1-.6.5-.8 1.6-.4 2.9.5 1.8.3 2.2-1.1 1.9-2.2-.4-3.1 2-1 2.8 1.5.6 1.5.8-.1 2s-1.3 1.3 2.3.8c3-.4 4.5-.2 5.7 1 .8.9 2.1 1.6 2.7 1.6.7 0 1 .8.7 2-.5 1.8.7 2.6 3.6 2.1.4 0 .7.4.7 1.1 0 .9.3.9 1.1.1 1.6-1.6-1.1-5.6-2.8-4.1-.9.7-1.3.7-1.3 0 0-.6.8-1.6 1.8-2.2 1.4-.8 1.2-.9-1.1-.4-2 .5-3.6 0-6.1-2-1.9-1.4-4.1-2.6-4.8-2.7-.7-.1-.2-.4 1.2-.9 1.7-.5 2.9-.3 3.6.7 1 1.1 1.3 1 1.7-.8.4-1.5.2-1.9-.8-1.5-.8.3-2.2-.2-3-1.1-1.5-1.4-1.5-1.7 0-3.3 1.4-1.6 1.4-1.8-1.2-2.8-3.6-1.4-8.2-1.1-7.6.5zM92 378c-1.3.8-1.2 1 .3 1 .9 0 1.7-.5 1.7-1 0-1.2-.1-1.2-2 0zM149 379.2c0 .7.5 2 1 2.8.8 1.2 1 .9 1-1.3 0-1.5-.4-2.7-1-2.7-.5 0-1 .6-1 1.2zM165.8 378.7c-2.5.6-2.3 4.4.2 5 1.1.3 2 .9 2 1.3s.9 1 2 1.3c1.7.4 2 0 2-2.4 0-1.6-.5-2.9-1.1-2.9-.7 0-1.7-.6-2.3-1.3-.6-.8-1.9-1.2-2.8-1zM65.5 379.9c-1 1.8 1.5 2.2 3.7.7l2.2-1.6h-2.6c-1.5 0-2.9.4-3.3.9zM73.8 379.7c.7.3 1.6.2 1.9-.1.4-.3-.2-.6-1.3-.5-1.1 0-1.4.3-.6.6zM108.3 379.7c.9.2 2.3.2 3 0 .6-.3-.1-.5-1.8-.5-1.6 0-2.2.2-1.2.5zM117 380.4c0 .7 1 1.6 2.3 2 3.8 1 4.5.7 4-1.5-.4-1.6-.8-1.7-1.4-.7-.7 1-1.2 1.1-2.9 0-1.6-1-2-1-2 .2zM39.3 381.4c-.9 1.1-.9 1.5 0 1.9.7.3 1.4-.3 1.4-1.4.2-2.2.2-2.2-1.4-.5z"/><path d="M76.5 383c-.6 1 4.4 3.5 5.3 2.6.6-.7-2.4-3.6-3.7-3.6-.5 0-1.3.5-1.6 1zM113 383.3c-1.4.6-2.7 1.4-3 1.7-1.1 1.4-3.8 1.8-5 .7-1-.9-1.2-.9-.8.2.9 3 3.5 3.6 7.2 1.6 2-1.1 3.6-2.3 3.6-2.7 0-.5.3-.7.8-.6.4.2.8-.1 1-.7.5-1.4-1-1.5-3.8-.2zM35 384.1c0 .5.5.7 1 .4.6-.3 1-.8 1-1.1 0-.2-.4-.4-1-.4-.5 0-1 .5-1 1.1zM53.5 384c-.3.6.1.7.9.4 1.8-.7 2.1-1.4.7-1.4-.6 0-1.3.4-1.6 1zM128.2 385.1c-1.2 1.9-1.1 1.9.7 1 2.6-1.4 3.6-3.1 1.9-3.1-.7 0-1.9.9-2.6 2.1zM135 383.2c0 .4 1.3 2.1 2.8 3.8 2.4 2.6 3.1 2.9 4.1 1.7.8-1 .8-2.2.2-3.8-.5-1.3-1-1.8-1-1.2-.1 1.6-3.3 1.7-4.9.1-.7-.7-1.2-.9-1.2-.6zM175 384c0 .5.5 1 1 1 .6 0 1-.5 1-1 0-.6-.4-1-1-1-.5 0-1 .4-1 1zM65.8 384.7c.7.3 1.6.2 1.9-.1.4-.3-.2-.6-1.3-.5-1.1 0-1.4.3-.6.6zM13.5 386c-.3.5.1 1 .9 1 .9 0 1.6-.5 1.6-1 0-.6-.4-1-.9-1-.6 0-1.3.4-1.6 1zM43.5 385.9c-.3.5-.1 1.2.5 1.6.5.3 1-.1 1-.9 0-1.8-.6-2.1-1.5-.7zM157 386.4c0 .9.5 1.6 1 1.6.6 0 1-.4 1-.9 0-.6-.4-1.3-1-1.6-.5-.3-1 .1-1 .9zM184.8 387.4c-1.5 1.8-1.7 1.9-1.8.4 0-1.1-.5-1.5-1.5-1.2-2.5 1-1.7 2.2 2.9 4.2 5.6 2.5 6 3.4 3.5 6.6-1.6 2.1-1.7 2.6-.5 2.6.8 0 1.8-.5 2.1-1 .4-.6 1.1-.7 1.7-.4.7.4.8.2.4-.5-.5-.7.7-2.6 2.8-4.7l3.6-3.6-3.5.6c-4 .8-7.2-.6-7.7-3.3-.3-1.8-.4-1.8-2 .3zM58.5 387c.3.5 1.3 1 2.1 1s1.4-.5 1.4-1c0-.6-.9-1-2.1-1-1.1 0-1.7.4-1.4 1zM132 387c0 .5.7 1 1.5 1s1.5-.5 1.5-1c0-.6-.7-1-1.5-1s-1.5.4-1.5 1zM27.5 388c.3.5.8 1 1.1 1 .2 0 .4-.5.4-1 0-.6-.5-1-1.1-1-.5 0-.7.4-.4 1zM66 388c0 .5.9 1 2.1 1 1.1 0 1.7-.5 1.4-1-.3-.6-1.3-1-2.1-1s-1.4.4-1.4 1zM174.5 388.3c-1.1.7-2.3 1.7-2.8 2.4-.4.7-1.5 1-2.5.7-1.4-.5-1.4-.4-.2.4 1 .8 1.8.8 2.7 0 1.9-1.6 2.9 0 1.5 2.2-.7 1.1-1.2 3-1.2 4.2 0 1.8.4 1.4 1.9-1.6 1.1-2.1 1.7-4.4 1.4-5.2-.3-.8 0-2.1.7-2.9 1.5-1.8 1.2-1.8-1.5-.2zM37.5 389c-.3.5-.1 1 .4 1 .6 0 1.1-.5 1.1-1 0-.6-.2-1-.4-1-.3 0-.8.4-1.1 1zM115 388.8c-1.7.8-2.5 5.2-1 5.2.6 0 1-.5 1-1.1 0-.5.4-.8.9-.5.5.3.8-.2.7-1.1 0-1 .9-2 2.4-2.4l2.5-.7H119c-1.4 0-3.2.2-4 .6zM154 389c0 .5.7 1 1.6 1 .8 0 1.2-.5.9-1-.3-.6-1-1-1.6-1-.5 0-.9.4-.9 1zM60.6 390.5c-.3.8-1.7 1.7-3.1 2.1-2 .5-2.5 1.1-2.2 2.5.3 1.2 0 1.9-1 1.9-.8 0-1.1-.4-.8-1 .4-.6-.2-.7-1.7-.2-2.7 1-5.8.5-5.8-1 0-.5.6-.8 1.3-.5.8.3 1.4-.1 1.4-.9s-.9-1.4-1.9-1.4c-1.2 0-1.6-.4-1.2-1.2.5-.8.2-.9-1.2-.3-1 .4-2.6.8-3.5.9-.9 0-1.6.6-1.6 1.3 0 .7.3 1 .7.8.3-.2 1.1.9 1.8 2.4 1 2.3 1.7 2.7 3.8 2.3 1.6-.3 2.9.1 3.5.9.7 1.1 1.1 1 2.3-.6.9-1.1 1.6-1.5 1.6-.7s.9 1.1 2.4.8c3.6-.6 6.7-2.9 6.1-4.5-.5-1.1-.3-1.2 1-.1 1.4 1.1 1.9 1 3.8-1l2.2-2.2-2.7.6c-2.1.5-2.8.3-2.8-.9 0-1.9-1.6-2-2.4 0zM45 395c0 .5-.4 1-.9 1-.6 0-1.3-.5-1.6-1-.3-.6.1-1 .9-1 .9 0 1.6.4 1.6 1zM77.5 390.4c-1.8 1.3-1.8 1.4.8.9 1.5-.3 2.4-.9 2.1-1.4-.7-1.2-.7-1.2-2.9.5zM97 390c-1.3.8-1.2 1 .3 1 .9 0 1.7-.5 1.7-1 0-1.2-.1-1.2-2 0zM24.7 391.7c.4 1.1.2 1.4-.5.9-.8-.5-1-.2-.6.9.5 1.2.9 1.3 2 .4 1.8-1.5 1.8-2.5 0-3.2-1.1-.4-1.3-.1-.9 1zM122.5 391.9c-.2.5.7 1.3 2 1.9 1.3.6 2.6.8 2.9.4.2-.4-.7-1.2-2-1.9-1.3-.6-2.6-.8-2.9-.4zM133 393.6c-1.5 3.8-1.2 5 .6 2.8.8-1 1.3-1.3.9-.7-.4.8 0 1.3 1 1.3.9 0 1.4.4 1 .9-.5 1 4.4-.1 6.4-1.3.5-.4 1.3-.1 1.7.5.4.7.3.9-.3.6-.6-.4-1.6-.1-2.2.7-1 1.2-.6 1.4 2.3 1.3 1.9 0 3.3-.5 3-.9-.3-.4.2-.8 1.1-.8.9 0 1.3-.5 1-1-.4-.6-1-.8-1.5-.5-.5.3-1.5-.3-2.2-1.3-2-2.8-4-3.1-6.9-1.1-2.3 1.6-2.8 1.7-3.9.4-.6-.8-.9-1.9-.5-2.5.3-.5.4-1 0-1-.3 0-1 1.2-1.5 2.6zM226.1 392.9c-.9.6-1 1.1-.2 1.5.6.4 1.1.4 1.1 0 0-.3.6-.2 1.3.4 1 .8 1.6.6 2.5-.9 1.1-1.7.9-1.9-1-1.9-1.3 0-2.9.4-3.7.9zM29.8 393.7c-1 .2-1.8.8-1.8 1.3s-.9 1.2-2 1.5c-1.1.3-2 1.2-2 1.8 0 1.5 5.9 2 7.6.6.8-.7 1.4-.7 1.9.1.8 1.2 6.5 1.4 6.5.1 0-.5-1.1-.8-2.4-.5-1.4.2-2.8 0-3.1-.6-.3-.5-1.5-1-2.6-1-2.2 0-2.4-1.1-.7-2.8.7-.7 1-1.1.8-1.1-.3.1-1.3.3-2.2.6zM74 394c0 1.7 3 2.4 4.3 1.1.9-.9.8-1.1-.5-.6-1.1.4-1.8.2-1.8-.4 0-.6-.4-1.1-1-1.1-.5 0-1 .5-1 1zM118.8 393.7c.6.2 1.2 1.1 1.2 1.9 0 .8.6 1.4 1.3 1.4.6 0 2.2.3 3.5.6 1.2.4 2.2.2 2.2-.2-.1-1.1-6.6-4.4-8.3-4.3-.9 0-.9.2.1.6zM147 394c0 .5.5 1 1.1 1 .5 0 .7-.5.4-1-.3-.6-.8-1-1.1-1-.2 0-.4.4-.4 1zM158.6 393.8c1.6 1.4 6.2 3.1 6.8 2.5 1.2-1.2-1.8-3.3-4.7-3.3-1.7 0-2.7.4-2.1.8zM.2 396.7c.3 2.5.7 2.8 3.8 2.8 3.1 0 3.5-.3 3.8-2.8.3-2.6.1-2.7-3.8-2.7s-4.1.1-3.8 2.7zm4.8.3c0 .5-.8 1-1.7 1-1.5 0-1.6-.2-.3-1 1.9-1.2 2-1.2 2 0zM82.4 398c0 1.3.4 1.6 1 1 .7-.7.7-1.3 0-2-.6-.6-1-.3-1 1zM110.5 397c-.3.5-.1 1 .5 1s.8.4.5 1c-.3.5.1 1 .9 1 1.8 0 1.9-.2 1-2.4-.7-1.8-2-2.1-2.9-.6zM208.7 396.7c-1 .9-.9 3.3.1 3.3.4 0 .8-.9.8-2 0-2.3 0-2.2-.9-1.3zM225.5 397c.3.5.8 1 1.1 1 .2 0 .4-.5.4-1 0-.6-.5-1-1.1-1-.5 0-.7.4-.4 1zM212.6 398.5c-1.9 1.4-1.8 1.5 1.2 1.5 2.4 0 3-.4 2.6-1.5-.7-1.8-1.4-1.8-3.8 0zM237 397.6c0 .6-2 .9-4.5.7-2.6-.2-4.5.1-4.5.7s2.6 1 6.3 1c3.4 0 5.8-.4 5.2-.8-.5-.4-1.3-1.1-1.7-1.6-.5-.6-.8-.5-.8 0zM12.5 399c-.3.5.1 1 1 1s1.3-.5 1-1c-.3-.6-.8-1-1-1-.2 0-.7.4-1 1zM60 398.4c0 .2.7.7 1.6 1 .8.3 1.2.2.9-.4-.6-1-2.5-1.4-2.5-.6zM154 399c-.9.6-1 1-.3 1 .6 0 1.5-.5 1.8-1 .8-1.2.4-1.2-1.5 0zM222 399c0 .5.5 1 1.1 1 .5 0 .7-.5.4-1-.3-.6-.8-1-1.1-1-.2 0-.4.4-.4 1zM126.8 399.7c.6.2 1.8.2 2.5 0 .6-.3.1-.5-1.3-.5-1.4 0-1.9.2-1.2.5z"/></svg>